%TF.GenerationSoftware,KiCad,Pcbnew,7.0.2*%
%TF.CreationDate,2023-05-24T11:08:55-03:00*%
%TF.ProjectId,Fonte-de-corrente-SWLS_V0,466f6e74-652d-4646-952d-636f7272656e,rev?*%
%TF.SameCoordinates,Original*%
%TF.FileFunction,Copper,L2,Bot*%
%TF.FilePolarity,Positive*%
%FSLAX46Y46*%
G04 Gerber Fmt 4.6, Leading zero omitted, Abs format (unit mm)*
G04 Created by KiCad (PCBNEW 7.0.2) date 2023-05-24 11:08:55*
%MOMM*%
%LPD*%
G01*
G04 APERTURE LIST*
G04 Aperture macros list*
%AMRoundRect*
0 Rectangle with rounded corners*
0 $1 Rounding radius*
0 $2 $3 $4 $5 $6 $7 $8 $9 X,Y pos of 4 corners*
0 Add a 4 corners polygon primitive as box body*
4,1,4,$2,$3,$4,$5,$6,$7,$8,$9,$2,$3,0*
0 Add four circle primitives for the rounded corners*
1,1,$1+$1,$2,$3*
1,1,$1+$1,$4,$5*
1,1,$1+$1,$6,$7*
1,1,$1+$1,$8,$9*
0 Add four rect primitives between the rounded corners*
20,1,$1+$1,$2,$3,$4,$5,0*
20,1,$1+$1,$4,$5,$6,$7,0*
20,1,$1+$1,$6,$7,$8,$9,0*
20,1,$1+$1,$8,$9,$2,$3,0*%
G04 Aperture macros list end*
%TA.AperFunction,ComponentPad*%
%ADD10R,2.775000X2.775000*%
%TD*%
%TA.AperFunction,ComponentPad*%
%ADD11C,2.775000*%
%TD*%
%TA.AperFunction,ComponentPad*%
%ADD12C,1.300000*%
%TD*%
%TA.AperFunction,ComponentPad*%
%ADD13R,2.000000X4.600000*%
%TD*%
%TA.AperFunction,ComponentPad*%
%ADD14O,2.000000X4.200000*%
%TD*%
%TA.AperFunction,ComponentPad*%
%ADD15O,4.200000X2.000000*%
%TD*%
%TA.AperFunction,ComponentPad*%
%ADD16R,1.300000X1.300000*%
%TD*%
%TA.AperFunction,SMDPad,CuDef*%
%ADD17RoundRect,0.250000X-0.475000X0.250000X-0.475000X-0.250000X0.475000X-0.250000X0.475000X0.250000X0*%
%TD*%
%TA.AperFunction,ViaPad*%
%ADD18C,0.800000*%
%TD*%
%TA.AperFunction,Conductor*%
%ADD19C,0.800000*%
%TD*%
%TA.AperFunction,Conductor*%
%ADD20C,0.600000*%
%TD*%
%TA.AperFunction,Conductor*%
%ADD21C,0.400000*%
%TD*%
G04 APERTURE END LIST*
D10*
%TO.P,SW1,1,A*%
%TO.N,+5V*%
X27051000Y-53466000D03*
D11*
%TO.P,SW1,2,B*%
%TO.N,/IN*%
X27051000Y-58166000D03*
%TO.P,SW1,3,C*%
%TO.N,GND*%
X27051000Y-62866000D03*
%TO.P,SW1,S1*%
X14351000Y-55626000D03*
%TO.P,SW1,S2*%
X14351000Y-60706000D03*
%TD*%
D12*
%TO.P,J3,1*%
%TO.N,/CH2+*%
X64829000Y-58928000D03*
%TO.P,J3,2*%
%TO.N,/CH2-*%
X64829000Y-61468000D03*
%TO.P,J3,3*%
%TO.N,unconnected-(J3-Pad3)*%
X67369000Y-61468000D03*
%TO.P,J3,4*%
%TO.N,unconnected-(J3-Pad4)*%
X67369000Y-58928000D03*
%TO.P,J3,5*%
%TO.N,GND*%
X62289000Y-56388000D03*
%TO.P,J3,6*%
X69909000Y-56388000D03*
%TO.P,J3,7*%
X69909000Y-64008000D03*
%TO.P,J3,8*%
X62289000Y-64008000D03*
%TD*%
D13*
%TO.P,J4,1*%
%TO.N,/VIN*%
X24257000Y-41417000D03*
D14*
%TO.P,J4,2*%
%TO.N,GND*%
X17957000Y-41417000D03*
D15*
%TO.P,J4,3*%
X21357000Y-36617000D03*
%TD*%
D16*
%TO.P,U1,1,VI*%
%TO.N,/VIN*%
X21082000Y-48768000D03*
D12*
%TO.P,U1,2,GND*%
%TO.N,GND*%
X22352000Y-50038000D03*
%TO.P,U1,3,VO*%
%TO.N,+5V*%
X23622000Y-48768000D03*
%TD*%
D17*
%TO.P,C4,1*%
%TO.N,+5V*%
X26924000Y-48326000D03*
%TO.P,C4,2*%
%TO.N,GND*%
X26924000Y-50226000D03*
%TD*%
D12*
%TO.P,J2,1*%
%TO.N,/CH1+*%
X64829000Y-41021000D03*
%TO.P,J2,2*%
%TO.N,/CH1-*%
X64829000Y-43561000D03*
%TO.P,J2,3*%
%TO.N,unconnected-(J2-Pad3)*%
X67369000Y-43561000D03*
%TO.P,J2,4*%
%TO.N,unconnected-(J2-Pad4)*%
X67369000Y-41021000D03*
%TO.P,J2,5*%
%TO.N,GND*%
X62289000Y-38481000D03*
%TO.P,J2,6*%
X69909000Y-38481000D03*
%TO.P,J2,7*%
X69909000Y-46101000D03*
%TO.P,J2,8*%
X62289000Y-46101000D03*
%TD*%
D18*
%TO.N,GND*%
X30988000Y-37338000D03*
X44069000Y-65913000D03*
X43815000Y-39497000D03*
X50419000Y-39497000D03*
X50292000Y-66421000D03*
%TO.N,+5V*%
X48852472Y-62135000D03*
X47991000Y-35233000D03*
X56091472Y-61627000D03*
X55992000Y-35233000D03*
%TO.N,/IN*%
X53297472Y-62516000D03*
X52324000Y-35814000D03*
%TO.N,/~{IN}*%
X42926000Y-64421000D03*
X22733000Y-66421000D03*
%TD*%
D19*
%TO.N,+5V*%
X48680000Y-34544000D02*
X55303000Y-34544000D01*
X26924000Y-45085000D02*
X26924000Y-48326000D01*
X47483000Y-34725000D02*
X39482000Y-34725000D01*
X38481000Y-61087000D02*
X32893000Y-66675000D01*
X23876000Y-56641000D02*
X27051000Y-53466000D01*
X47991000Y-35233000D02*
X47483000Y-34725000D01*
X39482000Y-34725000D02*
X37284000Y-34725000D01*
X26482000Y-48768000D02*
X26924000Y-48326000D01*
X47804472Y-61087000D02*
X38481000Y-61087000D01*
X48852472Y-62135000D02*
X47804472Y-61087000D01*
X55583472Y-61119000D02*
X56091472Y-61627000D01*
X49868472Y-61119000D02*
X55583472Y-61119000D01*
X23622000Y-48768000D02*
X26482000Y-48768000D01*
X48852472Y-62135000D02*
X49868472Y-61119000D01*
X37284000Y-34725000D02*
X26924000Y-45085000D01*
X25527000Y-66675000D02*
X23876000Y-65024000D01*
X47991000Y-35233000D02*
X48680000Y-34544000D01*
X55303000Y-34544000D02*
X55992000Y-35233000D01*
X32893000Y-66675000D02*
X25527000Y-66675000D01*
X23876000Y-65024000D02*
X23876000Y-56641000D01*
D20*
%TO.N,/IN*%
X39116000Y-36703000D02*
X51435000Y-36703000D01*
D21*
X57658000Y-62103000D02*
X56642000Y-63119000D01*
X54134000Y-62516000D02*
X53297472Y-62516000D01*
D20*
X51435000Y-36703000D02*
X52324000Y-35814000D01*
X29210000Y-56007000D02*
X29210000Y-45974000D01*
D21*
X57658000Y-60198000D02*
X57658000Y-62103000D01*
D20*
X27051000Y-58166000D02*
X29210000Y-56007000D01*
D21*
X56642000Y-63119000D02*
X54737000Y-63119000D01*
D20*
X29210000Y-45974000D02*
X38481000Y-36703000D01*
D21*
X54737000Y-63119000D02*
X54134000Y-62516000D01*
X55626000Y-58166000D02*
X57658000Y-60198000D01*
X27051000Y-58166000D02*
X55626000Y-58166000D01*
D20*
X38481000Y-36703000D02*
X39116000Y-36703000D01*
%TO.N,/~{IN}*%
X42926000Y-64421000D02*
X40862000Y-64421000D01*
X40862000Y-64421000D02*
X37592000Y-67691000D01*
X37592000Y-67691000D02*
X24003000Y-67691000D01*
X24003000Y-67691000D02*
X22733000Y-66421000D01*
%TD*%
%TA.AperFunction,Conductor*%
%TO.N,GND*%
G36*
X28352539Y-55373684D02*
G01*
X28398294Y-55426488D01*
X28409500Y-55477999D01*
X28409500Y-55624058D01*
X28389815Y-55691097D01*
X28373181Y-55711739D01*
X27750454Y-56334466D01*
X27689131Y-56367951D01*
X27619441Y-56362967D01*
X27584271Y-56349850D01*
X27320377Y-56292443D01*
X27051000Y-56273176D01*
X26781622Y-56292443D01*
X26517734Y-56349848D01*
X26412958Y-56388928D01*
X26264693Y-56444228D01*
X26264690Y-56444229D01*
X26264689Y-56444230D01*
X26027664Y-56573654D01*
X25811462Y-56735502D01*
X25620502Y-56926462D01*
X25458654Y-57142664D01*
X25346907Y-57347316D01*
X25329228Y-57379693D01*
X25324261Y-57393011D01*
X25234848Y-57632734D01*
X25177443Y-57896622D01*
X25158176Y-58166000D01*
X25177443Y-58435377D01*
X25234848Y-58699265D01*
X25234850Y-58699270D01*
X25329228Y-58952307D01*
X25346907Y-58984683D01*
X25458654Y-59189335D01*
X25539577Y-59297435D01*
X25620500Y-59405535D01*
X25811465Y-59596500D01*
X25936624Y-59690193D01*
X26027664Y-59758345D01*
X26066526Y-59779565D01*
X26264693Y-59887772D01*
X26517730Y-59982150D01*
X26517733Y-59982150D01*
X26517734Y-59982151D01*
X26544939Y-59988069D01*
X26781623Y-60039557D01*
X27051000Y-60058823D01*
X27320377Y-60039557D01*
X27584270Y-59982150D01*
X27837307Y-59887772D01*
X28074337Y-59758344D01*
X28290535Y-59596500D01*
X28481500Y-59405535D01*
X28643344Y-59189337D01*
X28772772Y-58952307D01*
X28774688Y-58947171D01*
X28816557Y-58891236D01*
X28882020Y-58866816D01*
X28890871Y-58866500D01*
X55284481Y-58866500D01*
X55351520Y-58886185D01*
X55372162Y-58902819D01*
X56921180Y-60451837D01*
X56954665Y-60513160D01*
X56957499Y-60539518D01*
X56957499Y-60920014D01*
X56937814Y-60987053D01*
X56885010Y-61032808D01*
X56815852Y-61042752D01*
X56752296Y-61013727D01*
X56741349Y-61002986D01*
X56732731Y-60993415D01*
X56727003Y-60987053D01*
X56697343Y-60954111D01*
X56686003Y-60945873D01*
X56671206Y-60933235D01*
X56277236Y-60539265D01*
X56264597Y-60524467D01*
X56256360Y-60513129D01*
X56249847Y-60507265D01*
X56205954Y-60467743D01*
X56201245Y-60463274D01*
X56189151Y-60451180D01*
X56186852Y-60448881D01*
X56184335Y-60446843D01*
X56184331Y-60446839D01*
X56171029Y-60436067D01*
X56166097Y-60431854D01*
X56115687Y-60386466D01*
X56103548Y-60379458D01*
X56087515Y-60368439D01*
X56076621Y-60359617D01*
X56076619Y-60359616D01*
X56076618Y-60359615D01*
X56016185Y-60328823D01*
X56010480Y-60325725D01*
X55951755Y-60291820D01*
X55938425Y-60287489D01*
X55920446Y-60280042D01*
X55907959Y-60273679D01*
X55842448Y-60256125D01*
X55836226Y-60254282D01*
X55771726Y-60233325D01*
X55757787Y-60231860D01*
X55738659Y-60228315D01*
X55725117Y-60224686D01*
X55657381Y-60221136D01*
X55650919Y-60220628D01*
X55633885Y-60218838D01*
X55633876Y-60218837D01*
X55630664Y-60218500D01*
X55627419Y-60218500D01*
X55610298Y-60218500D01*
X55603809Y-60218330D01*
X55598847Y-60218069D01*
X55536084Y-60214781D01*
X55536083Y-60214781D01*
X55528548Y-60215974D01*
X55522243Y-60216973D01*
X55502846Y-60218500D01*
X49949098Y-60218500D01*
X49929700Y-60216973D01*
X49915860Y-60214781D01*
X49848136Y-60218330D01*
X49841647Y-60218500D01*
X49821280Y-60218500D01*
X49818067Y-60218837D01*
X49818059Y-60218838D01*
X49801025Y-60220628D01*
X49794563Y-60221136D01*
X49726824Y-60224687D01*
X49713277Y-60228316D01*
X49694161Y-60231859D01*
X49680215Y-60233325D01*
X49615713Y-60254283D01*
X49609492Y-60256126D01*
X49543982Y-60273680D01*
X49531488Y-60280046D01*
X49513528Y-60287485D01*
X49500190Y-60291819D01*
X49441468Y-60325722D01*
X49435767Y-60328818D01*
X49375317Y-60359619D01*
X49364422Y-60368442D01*
X49348394Y-60379458D01*
X49336256Y-60386466D01*
X49285848Y-60431852D01*
X49280923Y-60436059D01*
X49267613Y-60446839D01*
X49265092Y-60448881D01*
X49262809Y-60451163D01*
X49262791Y-60451180D01*
X49250681Y-60463289D01*
X49245980Y-60467751D01*
X49195580Y-60513132D01*
X49187341Y-60524472D01*
X49174707Y-60539264D01*
X48940152Y-60773819D01*
X48878829Y-60807304D01*
X48809137Y-60802320D01*
X48764792Y-60773820D01*
X48498235Y-60507264D01*
X48485597Y-60492467D01*
X48477362Y-60481132D01*
X48477360Y-60481129D01*
X48462493Y-60467743D01*
X48426954Y-60435743D01*
X48422245Y-60431274D01*
X48410151Y-60419180D01*
X48407852Y-60416881D01*
X48405335Y-60414843D01*
X48405331Y-60414839D01*
X48392029Y-60404067D01*
X48387097Y-60399854D01*
X48336687Y-60354466D01*
X48324548Y-60347458D01*
X48308515Y-60336439D01*
X48297621Y-60327617D01*
X48297619Y-60327616D01*
X48297618Y-60327615D01*
X48237185Y-60296823D01*
X48231480Y-60293725D01*
X48172755Y-60259820D01*
X48159425Y-60255489D01*
X48141446Y-60248042D01*
X48128959Y-60241679D01*
X48063448Y-60224125D01*
X48057226Y-60222282D01*
X47992726Y-60201325D01*
X47978787Y-60199860D01*
X47959659Y-60196315D01*
X47946117Y-60192686D01*
X47878381Y-60189136D01*
X47871919Y-60188628D01*
X47854885Y-60186838D01*
X47854876Y-60186837D01*
X47851664Y-60186500D01*
X47848419Y-60186500D01*
X47831298Y-60186500D01*
X47824809Y-60186330D01*
X47819847Y-60186069D01*
X47757084Y-60182781D01*
X47757083Y-60182781D01*
X47749548Y-60183974D01*
X47743243Y-60184973D01*
X47723846Y-60186500D01*
X38561626Y-60186500D01*
X38542228Y-60184973D01*
X38528388Y-60182781D01*
X38460670Y-60186330D01*
X38454180Y-60186500D01*
X38433808Y-60186500D01*
X38430593Y-60186837D01*
X38430588Y-60186838D01*
X38418953Y-60188060D01*
X38413539Y-60188629D01*
X38407084Y-60189137D01*
X38339351Y-60192687D01*
X38325809Y-60196316D01*
X38306685Y-60199860D01*
X38292744Y-60201325D01*
X38228245Y-60222282D01*
X38222023Y-60224126D01*
X38156510Y-60241680D01*
X38144021Y-60248044D01*
X38126052Y-60255487D01*
X38112717Y-60259820D01*
X38053996Y-60293722D01*
X38048295Y-60296818D01*
X37987845Y-60327619D01*
X37976950Y-60336442D01*
X37960922Y-60347458D01*
X37948784Y-60354466D01*
X37898376Y-60399852D01*
X37893451Y-60404059D01*
X37880141Y-60414839D01*
X37877620Y-60416881D01*
X37875337Y-60419163D01*
X37875319Y-60419180D01*
X37863209Y-60431289D01*
X37858508Y-60435751D01*
X37808108Y-60481132D01*
X37799869Y-60492472D01*
X37787235Y-60507264D01*
X32556320Y-65738181D01*
X32494997Y-65771666D01*
X32468639Y-65774500D01*
X25951362Y-65774500D01*
X25884323Y-65754815D01*
X25863681Y-65738181D01*
X24812819Y-64687319D01*
X24779334Y-64625996D01*
X24776500Y-64599638D01*
X24776500Y-62866000D01*
X25158678Y-62866000D01*
X25177940Y-63135306D01*
X25235330Y-63399126D01*
X25329683Y-63652099D01*
X25459078Y-63889067D01*
X25551250Y-64012194D01*
X25551251Y-64012195D01*
X26241473Y-63321972D01*
X26245514Y-63331047D01*
X26359805Y-63488355D01*
X26504304Y-63618463D01*
X26597995Y-63672555D01*
X25904803Y-64365747D01*
X25904804Y-64365748D01*
X26027932Y-64457921D01*
X26264900Y-64587316D01*
X26517873Y-64681669D01*
X26781693Y-64739059D01*
X27051000Y-64758321D01*
X27320306Y-64739059D01*
X27584126Y-64681669D01*
X27837099Y-64587316D01*
X28074063Y-64457923D01*
X28197195Y-64365747D01*
X27504003Y-63672556D01*
X27597696Y-63618463D01*
X27742195Y-63488355D01*
X27856486Y-63331048D01*
X27860525Y-63321973D01*
X28550747Y-64012195D01*
X28642923Y-63889063D01*
X28772316Y-63652099D01*
X28866669Y-63399126D01*
X28924059Y-63135306D01*
X28943321Y-62866000D01*
X28924059Y-62596693D01*
X28866669Y-62332873D01*
X28772316Y-62079900D01*
X28642921Y-61842932D01*
X28550748Y-61719804D01*
X28550747Y-61719803D01*
X27860525Y-62410025D01*
X27856486Y-62400953D01*
X27742195Y-62243645D01*
X27597696Y-62113537D01*
X27504002Y-62059443D01*
X28197195Y-61366251D01*
X28197194Y-61366250D01*
X28074067Y-61274078D01*
X27837099Y-61144683D01*
X27584126Y-61050330D01*
X27320306Y-60992940D01*
X27051000Y-60973678D01*
X26781693Y-60992940D01*
X26517873Y-61050330D01*
X26264900Y-61144683D01*
X26027937Y-61274075D01*
X25904804Y-61366251D01*
X26597997Y-62059443D01*
X26504304Y-62113537D01*
X26359805Y-62243645D01*
X26245514Y-62400952D01*
X26241473Y-62410026D01*
X25551251Y-61719804D01*
X25459075Y-61842937D01*
X25329683Y-62079900D01*
X25235330Y-62332873D01*
X25177940Y-62596693D01*
X25158678Y-62866000D01*
X24776500Y-62866000D01*
X24776500Y-57065360D01*
X24796185Y-56998321D01*
X24812814Y-56977684D01*
X26400180Y-55390317D01*
X26461503Y-55356833D01*
X26487861Y-55353999D01*
X28285500Y-55353999D01*
X28352539Y-55373684D01*
G37*
%TD.AperFunction*%
%TA.AperFunction,Conductor*%
G36*
X71951539Y-32278185D02*
G01*
X71997294Y-32330989D01*
X72008500Y-32382500D01*
X72008500Y-70106500D01*
X71988815Y-70173539D01*
X71936011Y-70219294D01*
X71884500Y-70230500D01*
X12189500Y-70230500D01*
X12122461Y-70210815D01*
X12076706Y-70158011D01*
X12065500Y-70106500D01*
X12065500Y-60705999D01*
X12458678Y-60705999D01*
X12477940Y-60975306D01*
X12535330Y-61239126D01*
X12629683Y-61492099D01*
X12759078Y-61729067D01*
X12851250Y-61852194D01*
X12851251Y-61852195D01*
X13541473Y-61161972D01*
X13545514Y-61171047D01*
X13659805Y-61328355D01*
X13804304Y-61458463D01*
X13897995Y-61512555D01*
X13204803Y-62205747D01*
X13204804Y-62205748D01*
X13327932Y-62297921D01*
X13564900Y-62427316D01*
X13817873Y-62521669D01*
X14081693Y-62579059D01*
X14350999Y-62598321D01*
X14620306Y-62579059D01*
X14884126Y-62521669D01*
X15137099Y-62427316D01*
X15374063Y-62297923D01*
X15497195Y-62205747D01*
X14804003Y-61512556D01*
X14897696Y-61458463D01*
X15042195Y-61328355D01*
X15156486Y-61171048D01*
X15160526Y-61161973D01*
X15850747Y-61852195D01*
X15942923Y-61729063D01*
X16072316Y-61492099D01*
X16166669Y-61239126D01*
X16224059Y-60975306D01*
X16243321Y-60705999D01*
X16224059Y-60436693D01*
X16166669Y-60172873D01*
X16072316Y-59919900D01*
X15942921Y-59682932D01*
X15850748Y-59559804D01*
X15850747Y-59559803D01*
X15160525Y-60250025D01*
X15156486Y-60240953D01*
X15042195Y-60083645D01*
X14897696Y-59953537D01*
X14804002Y-59899443D01*
X15497195Y-59206251D01*
X15497194Y-59206250D01*
X15374067Y-59114078D01*
X15137099Y-58984683D01*
X14884126Y-58890330D01*
X14620306Y-58832940D01*
X14350999Y-58813678D01*
X14081693Y-58832940D01*
X13817873Y-58890330D01*
X13564900Y-58984683D01*
X13327937Y-59114075D01*
X13204804Y-59206251D01*
X13897997Y-59899443D01*
X13804304Y-59953537D01*
X13659805Y-60083645D01*
X13545514Y-60240952D01*
X13541473Y-60250026D01*
X12851251Y-59559804D01*
X12759075Y-59682937D01*
X12629683Y-59919900D01*
X12535330Y-60172873D01*
X12477940Y-60436693D01*
X12458678Y-60705999D01*
X12065500Y-60705999D01*
X12065500Y-55626000D01*
X12458678Y-55626000D01*
X12477940Y-55895306D01*
X12535330Y-56159126D01*
X12629683Y-56412099D01*
X12759078Y-56649067D01*
X12851250Y-56772194D01*
X12851251Y-56772195D01*
X13541473Y-56081972D01*
X13545514Y-56091047D01*
X13659805Y-56248355D01*
X13804304Y-56378463D01*
X13897995Y-56432555D01*
X13204803Y-57125747D01*
X13204804Y-57125748D01*
X13327932Y-57217921D01*
X13564900Y-57347316D01*
X13817873Y-57441669D01*
X14081693Y-57499059D01*
X14350999Y-57518321D01*
X14620306Y-57499059D01*
X14884126Y-57441669D01*
X15137099Y-57347316D01*
X15374063Y-57217923D01*
X15497195Y-57125747D01*
X14804003Y-56432556D01*
X14897696Y-56378463D01*
X15042195Y-56248355D01*
X15156486Y-56091048D01*
X15160526Y-56081973D01*
X15850747Y-56772195D01*
X15942923Y-56649063D01*
X16072316Y-56412099D01*
X16166669Y-56159126D01*
X16224059Y-55895306D01*
X16243321Y-55626000D01*
X16224059Y-55356693D01*
X16166669Y-55092873D01*
X16072316Y-54839900D01*
X15942921Y-54602932D01*
X15850748Y-54479804D01*
X15850747Y-54479803D01*
X15160525Y-55170025D01*
X15156486Y-55160953D01*
X15042195Y-55003645D01*
X14897696Y-54873537D01*
X14804002Y-54819443D01*
X15497195Y-54126251D01*
X15497194Y-54126250D01*
X15374067Y-54034078D01*
X15137099Y-53904683D01*
X14884126Y-53810330D01*
X14620306Y-53752940D01*
X14351000Y-53733678D01*
X14081693Y-53752940D01*
X13817873Y-53810330D01*
X13564900Y-53904683D01*
X13327937Y-54034075D01*
X13204803Y-54126251D01*
X13897995Y-54819444D01*
X13804304Y-54873537D01*
X13659805Y-55003645D01*
X13545514Y-55160952D01*
X13541473Y-55170026D01*
X12851251Y-54479804D01*
X12759075Y-54602937D01*
X12629683Y-54839900D01*
X12535330Y-55092873D01*
X12477940Y-55356693D01*
X12458678Y-55626000D01*
X12065500Y-55626000D01*
X12065500Y-49462578D01*
X19931500Y-49462578D01*
X19931501Y-49465872D01*
X19931853Y-49469152D01*
X19931854Y-49469159D01*
X19937909Y-49525484D01*
X19945713Y-49546407D01*
X19988204Y-49660331D01*
X20074454Y-49775546D01*
X20189669Y-49861796D01*
X20324517Y-49912091D01*
X20384127Y-49918500D01*
X21072959Y-49918499D01*
X21139997Y-49938183D01*
X21185752Y-49990987D01*
X21196429Y-50031057D01*
X21216738Y-50250219D01*
X21275062Y-50455208D01*
X21370060Y-50645990D01*
X21378834Y-50657609D01*
X21378835Y-50657609D01*
X21973661Y-50062782D01*
X21973114Y-50069395D01*
X22003837Y-50190719D01*
X22072289Y-50295492D01*
X22171052Y-50372363D01*
X22289424Y-50413000D01*
X22330551Y-50413000D01*
X21734991Y-51008560D01*
X21734992Y-51008561D01*
X21837201Y-51071846D01*
X22035939Y-51148837D01*
X22245439Y-51188000D01*
X22458561Y-51188000D01*
X22668060Y-51148837D01*
X22866795Y-51071847D01*
X22969007Y-51008560D01*
X22373446Y-50413000D01*
X22383073Y-50413000D01*
X22475446Y-50397586D01*
X22585514Y-50338019D01*
X22670278Y-50245941D01*
X22720551Y-50131330D01*
X22726545Y-50058992D01*
X23325163Y-50657610D01*
X23333940Y-50645988D01*
X23418584Y-50476000D01*
X25699001Y-50476000D01*
X25699001Y-50522829D01*
X25699321Y-50529111D01*
X25709493Y-50628695D01*
X25764642Y-50795122D01*
X25856683Y-50944345D01*
X25980654Y-51068316D01*
X26129877Y-51160357D01*
X26296303Y-51215506D01*
X26395890Y-51225680D01*
X26402168Y-51225999D01*
X26673999Y-51225999D01*
X26674000Y-51225998D01*
X26674000Y-50476000D01*
X27174000Y-50476000D01*
X27174000Y-51225999D01*
X27445829Y-51225999D01*
X27452111Y-51225678D01*
X27551695Y-51215506D01*
X27718122Y-51160357D01*
X27867345Y-51068316D01*
X27991316Y-50944345D01*
X28083357Y-50795122D01*
X28138506Y-50628696D01*
X28148680Y-50529109D01*
X28149000Y-50522831D01*
X28149000Y-50476000D01*
X27174000Y-50476000D01*
X26674000Y-50476000D01*
X25699001Y-50476000D01*
X23418584Y-50476000D01*
X23428937Y-50455208D01*
X23487262Y-50250219D01*
X23507570Y-50031059D01*
X23533356Y-49966122D01*
X23590157Y-49925434D01*
X23631041Y-49918500D01*
X23728608Y-49918500D01*
X23728610Y-49918500D01*
X23938198Y-49879321D01*
X24137019Y-49802298D01*
X24318302Y-49690052D01*
X24318302Y-49690051D01*
X24323113Y-49687073D01*
X24388391Y-49668500D01*
X25589070Y-49668500D01*
X25656109Y-49688185D01*
X25701864Y-49740989D01*
X25711808Y-49810147D01*
X25710095Y-49817417D01*
X25699319Y-49922890D01*
X25699000Y-49929168D01*
X25698999Y-49976000D01*
X28148999Y-49976000D01*
X28148999Y-49929170D01*
X28148678Y-49922888D01*
X28138506Y-49823304D01*
X28083357Y-49656877D01*
X27991316Y-49507654D01*
X27867344Y-49383682D01*
X27864343Y-49381831D01*
X27817618Y-49329883D01*
X27806397Y-49260921D01*
X27834240Y-49196839D01*
X27864345Y-49170753D01*
X27867656Y-49168712D01*
X27991712Y-49044656D01*
X28083814Y-48895334D01*
X28138999Y-48728797D01*
X28149500Y-48626009D01*
X28149499Y-48025992D01*
X28138999Y-47923203D01*
X28083814Y-47756666D01*
X27991712Y-47607344D01*
X27991711Y-47607342D01*
X27860819Y-47476450D01*
X27827334Y-47415127D01*
X27824500Y-47388769D01*
X27824500Y-45509361D01*
X27844185Y-45442322D01*
X27860819Y-45421680D01*
X37620681Y-35661819D01*
X37682004Y-35628334D01*
X37708362Y-35625500D01*
X39434808Y-35625500D01*
X47058639Y-35625500D01*
X47125678Y-35645185D01*
X47146320Y-35661819D01*
X47175320Y-35690819D01*
X47208805Y-35752142D01*
X47203821Y-35821834D01*
X47161949Y-35877767D01*
X47096485Y-35902184D01*
X47087639Y-35902500D01*
X38390803Y-35902500D01*
X38353480Y-35911017D01*
X38339780Y-35913345D01*
X38301743Y-35917631D01*
X38265623Y-35930270D01*
X38252268Y-35934118D01*
X38214937Y-35942639D01*
X38180440Y-35959252D01*
X38167597Y-35964572D01*
X38131477Y-35977210D01*
X38099068Y-35997574D01*
X38086904Y-36004296D01*
X38052414Y-36020906D01*
X38022482Y-36044776D01*
X38011145Y-36052820D01*
X37978740Y-36073181D01*
X37888164Y-36163755D01*
X37888160Y-36163761D01*
X28649154Y-45402765D01*
X28649150Y-45402771D01*
X28580185Y-45471735D01*
X28559817Y-45504151D01*
X28551772Y-45515489D01*
X28527908Y-45545413D01*
X28511300Y-45579899D01*
X28504576Y-45592064D01*
X28484211Y-45624475D01*
X28471565Y-45660613D01*
X28466246Y-45673453D01*
X28449639Y-45707938D01*
X28441118Y-45745268D01*
X28437270Y-45758623D01*
X28424631Y-45794743D01*
X28420345Y-45832780D01*
X28418017Y-45846480D01*
X28409500Y-45883803D01*
X28409500Y-51454000D01*
X28389815Y-51521039D01*
X28337011Y-51566794D01*
X28285500Y-51578000D01*
X25618939Y-51578000D01*
X25618920Y-51578000D01*
X25615628Y-51578001D01*
X25612348Y-51578353D01*
X25612340Y-51578354D01*
X25556015Y-51584409D01*
X25421169Y-51634704D01*
X25305954Y-51720954D01*
X25219704Y-51836168D01*
X25219703Y-51836169D01*
X25219704Y-51836169D01*
X25169409Y-51971017D01*
X25163000Y-52030627D01*
X25163000Y-52033949D01*
X25163000Y-54029138D01*
X25143315Y-54096177D01*
X25126681Y-54116819D01*
X23296264Y-55947235D01*
X23281472Y-55959869D01*
X23270132Y-55968108D01*
X23224751Y-56018508D01*
X23220289Y-56023209D01*
X23208180Y-56035319D01*
X23208163Y-56035337D01*
X23205881Y-56037620D01*
X23203846Y-56040132D01*
X23203843Y-56040136D01*
X23193059Y-56053451D01*
X23188852Y-56058376D01*
X23143466Y-56108784D01*
X23136458Y-56120922D01*
X23125442Y-56136950D01*
X23116619Y-56147845D01*
X23085818Y-56208295D01*
X23082722Y-56213996D01*
X23048822Y-56272713D01*
X23044488Y-56286052D01*
X23037044Y-56304022D01*
X23030680Y-56316512D01*
X23013126Y-56382017D01*
X23011284Y-56388234D01*
X22990325Y-56452743D01*
X22988860Y-56466686D01*
X22985315Y-56485814D01*
X22981686Y-56499355D01*
X22978136Y-56567091D01*
X22977628Y-56573553D01*
X22977618Y-56573654D01*
X22975500Y-56593808D01*
X22975500Y-56597052D01*
X22975500Y-56614174D01*
X22975330Y-56620663D01*
X22971781Y-56688388D01*
X22973973Y-56702227D01*
X22975500Y-56721626D01*
X22975500Y-64943373D01*
X22973973Y-64962771D01*
X22971780Y-64976610D01*
X22975330Y-65044335D01*
X22975500Y-65050824D01*
X22975500Y-65071192D01*
X22975837Y-65074404D01*
X22975838Y-65074413D01*
X22977628Y-65091447D01*
X22978136Y-65097909D01*
X22981686Y-65165645D01*
X22985315Y-65179187D01*
X22988860Y-65198315D01*
X22990325Y-65212254D01*
X23011282Y-65276754D01*
X23013125Y-65282976D01*
X23030679Y-65348487D01*
X23035604Y-65358152D01*
X23048501Y-65426821D01*
X23022226Y-65491562D01*
X22965120Y-65531819D01*
X22899340Y-65535738D01*
X22827649Y-65520500D01*
X22827646Y-65520500D01*
X22638354Y-65520500D01*
X22638352Y-65520500D01*
X22453197Y-65559855D01*
X22280269Y-65636848D01*
X22127129Y-65748110D01*
X22000466Y-65888783D01*
X21905820Y-66052715D01*
X21847326Y-66232742D01*
X21827540Y-66421000D01*
X21847326Y-66609257D01*
X21905820Y-66789284D01*
X22000466Y-66953216D01*
X22127129Y-67093889D01*
X22280265Y-67205149D01*
X22320714Y-67223158D01*
X22448192Y-67279916D01*
X22485435Y-67305513D01*
X23390615Y-68210694D01*
X23390620Y-68210698D01*
X23500735Y-68320813D01*
X23500738Y-68320816D01*
X23533143Y-68341177D01*
X23544486Y-68349225D01*
X23574414Y-68373092D01*
X23608895Y-68389697D01*
X23621066Y-68396423D01*
X23653480Y-68416790D01*
X23689608Y-68429432D01*
X23702450Y-68434750D01*
X23736935Y-68451358D01*
X23736939Y-68451360D01*
X23774250Y-68459876D01*
X23787611Y-68463725D01*
X23823745Y-68476368D01*
X23861776Y-68480653D01*
X23875481Y-68482981D01*
X23912806Y-68491500D01*
X23912807Y-68491500D01*
X37682195Y-68491500D01*
X37693009Y-68489031D01*
X37719520Y-68482980D01*
X37733197Y-68480655D01*
X37771255Y-68476368D01*
X37807399Y-68463720D01*
X37820721Y-68459882D01*
X37858061Y-68451360D01*
X37892549Y-68434750D01*
X37905391Y-68429431D01*
X37941522Y-68416789D01*
X37973932Y-68396423D01*
X37986103Y-68389697D01*
X38020587Y-68373091D01*
X38050515Y-68349222D01*
X38061834Y-68341190D01*
X38094262Y-68320816D01*
X38221816Y-68193262D01*
X38280375Y-68134703D01*
X38280388Y-68134688D01*
X41157258Y-65257819D01*
X41218582Y-65224334D01*
X41244940Y-65221500D01*
X42483633Y-65221500D01*
X42534069Y-65232221D01*
X42646197Y-65282144D01*
X42831352Y-65321500D01*
X42831354Y-65321500D01*
X43020648Y-65321500D01*
X43144083Y-65295262D01*
X43205803Y-65282144D01*
X43378730Y-65205151D01*
X43443628Y-65158000D01*
X43531870Y-65093889D01*
X43658533Y-64953216D01*
X43753179Y-64789284D01*
X43754224Y-64786067D01*
X43811674Y-64609256D01*
X43831460Y-64421000D01*
X43811674Y-64232744D01*
X43779313Y-64133148D01*
X43753179Y-64052715D01*
X43727362Y-64007999D01*
X61134073Y-64007999D01*
X61153737Y-64220219D01*
X61212062Y-64425208D01*
X61307058Y-64615988D01*
X61435497Y-64786067D01*
X61593001Y-64929652D01*
X61756156Y-65030673D01*
X61965330Y-64250016D01*
X62050955Y-64335641D01*
X62163852Y-64393165D01*
X62257519Y-64408000D01*
X62320481Y-64408000D01*
X62414148Y-64393165D01*
X62449430Y-64375187D01*
X62239677Y-65157999D01*
X62239678Y-65158000D01*
X62395561Y-65158000D01*
X62605060Y-65118837D01*
X62803798Y-65041846D01*
X62984996Y-64929654D01*
X63142502Y-64786067D01*
X63270938Y-64615992D01*
X63308747Y-64540058D01*
X62531018Y-64331667D01*
X62616641Y-64246045D01*
X62674165Y-64133148D01*
X62693986Y-64008000D01*
X62674165Y-63882852D01*
X62656186Y-63847566D01*
X63439346Y-64057414D01*
X63443926Y-64007999D01*
X68754073Y-64007999D01*
X68773737Y-64220219D01*
X68832062Y-64425208D01*
X68927058Y-64615988D01*
X69055497Y-64786067D01*
X69213001Y-64929652D01*
X69376156Y-65030673D01*
X69585330Y-64250016D01*
X69670955Y-64335641D01*
X69783852Y-64393165D01*
X69877519Y-64408000D01*
X69940481Y-64408000D01*
X70034148Y-64393165D01*
X70069430Y-64375187D01*
X69859677Y-65157999D01*
X69859678Y-65158000D01*
X70015561Y-65158000D01*
X70225060Y-65118837D01*
X70423798Y-65041846D01*
X70604996Y-64929654D01*
X70762502Y-64786067D01*
X70890938Y-64615992D01*
X70928747Y-64540058D01*
X70151018Y-64331667D01*
X70236641Y-64246045D01*
X70294165Y-64133148D01*
X70313986Y-64008000D01*
X70294165Y-63882852D01*
X70276186Y-63847566D01*
X71059346Y-64057414D01*
X71063926Y-64007998D01*
X71044262Y-63795780D01*
X70985937Y-63590791D01*
X70890941Y-63400011D01*
X70762502Y-63229932D01*
X70604998Y-63086347D01*
X70441842Y-62985325D01*
X70232667Y-63765981D01*
X70147045Y-63680359D01*
X70034148Y-63622835D01*
X69940481Y-63608000D01*
X69877519Y-63608000D01*
X69783852Y-63622835D01*
X69748566Y-63640813D01*
X69958322Y-62858000D01*
X69802439Y-62858000D01*
X69592939Y-62897162D01*
X69394201Y-62974153D01*
X69213003Y-63086345D01*
X69055497Y-63229932D01*
X68927060Y-63400009D01*
X68889251Y-63475940D01*
X69666982Y-63684331D01*
X69581359Y-63769955D01*
X69523835Y-63882852D01*
X69504014Y-64008000D01*
X69523835Y-64133148D01*
X69541812Y-64168431D01*
X68758651Y-63958584D01*
X68754073Y-64007999D01*
X63443926Y-64007999D01*
X63443926Y-64007998D01*
X63424262Y-63795780D01*
X63365937Y-63590791D01*
X63270941Y-63400011D01*
X63142502Y-63229932D01*
X62984998Y-63086347D01*
X62821842Y-62985325D01*
X62612667Y-63765981D01*
X62527045Y-63680359D01*
X62414148Y-63622835D01*
X62320481Y-63608000D01*
X62257519Y-63608000D01*
X62163852Y-63622835D01*
X62128566Y-63640813D01*
X62338322Y-62858000D01*
X62182439Y-62858000D01*
X61972939Y-62897162D01*
X61774201Y-62974153D01*
X61593003Y-63086345D01*
X61435497Y-63229932D01*
X61307060Y-63400009D01*
X61269251Y-63475940D01*
X62046982Y-63684331D01*
X61961359Y-63769955D01*
X61903835Y-63882852D01*
X61884014Y-64008000D01*
X61903835Y-64133148D01*
X61921812Y-64168431D01*
X61138651Y-63958584D01*
X61134073Y-64007999D01*
X43727362Y-64007999D01*
X43658533Y-63888783D01*
X43531870Y-63748110D01*
X43378730Y-63636848D01*
X43205802Y-63559855D01*
X43020648Y-63520500D01*
X43020646Y-63520500D01*
X42831354Y-63520500D01*
X42831352Y-63520500D01*
X42646197Y-63559855D01*
X42534069Y-63609779D01*
X42483633Y-63620500D01*
X40771803Y-63620500D01*
X40734490Y-63629016D01*
X40720785Y-63631345D01*
X40682747Y-63635631D01*
X40646611Y-63648275D01*
X40633255Y-63652122D01*
X40595938Y-63660640D01*
X40561459Y-63677244D01*
X40548618Y-63682563D01*
X40512479Y-63695209D01*
X40480064Y-63715577D01*
X40467897Y-63722301D01*
X40433415Y-63738907D01*
X40403489Y-63762772D01*
X40392151Y-63770817D01*
X40359735Y-63791185D01*
X40327749Y-63823173D01*
X37296741Y-66854181D01*
X37235418Y-66887666D01*
X37209060Y-66890500D01*
X34250361Y-66890500D01*
X34183322Y-66870815D01*
X34137567Y-66818011D01*
X34127623Y-66748853D01*
X34156648Y-66685297D01*
X34162680Y-66678819D01*
X38817680Y-62023819D01*
X38879003Y-61990334D01*
X38905361Y-61987500D01*
X47380111Y-61987500D01*
X47447150Y-62007185D01*
X47467791Y-62023818D01*
X47834024Y-62390052D01*
X48196754Y-62752782D01*
X48201223Y-62757491D01*
X48246601Y-62807888D01*
X48257942Y-62816128D01*
X48272732Y-62828759D01*
X48282647Y-62838674D01*
X48282648Y-62838675D01*
X48299566Y-62849661D01*
X48316995Y-62860980D01*
X48327483Y-62868599D01*
X48359323Y-62894383D01*
X48371816Y-62900748D01*
X48388400Y-62910910D01*
X48399742Y-62919151D01*
X48412545Y-62924851D01*
X48429647Y-62934137D01*
X48441402Y-62941771D01*
X48479640Y-62956449D01*
X48491483Y-62961721D01*
X48527984Y-62980320D01*
X48541529Y-62983949D01*
X48559862Y-62990441D01*
X48572669Y-62996144D01*
X48586383Y-62999059D01*
X48605041Y-63004586D01*
X48618119Y-63009606D01*
X48618122Y-63009607D01*
X48658575Y-63016014D01*
X48671244Y-63018706D01*
X48710827Y-63029313D01*
X48724824Y-63030046D01*
X48744114Y-63032585D01*
X48757826Y-63035500D01*
X48771846Y-63035500D01*
X48791244Y-63037027D01*
X48805084Y-63039219D01*
X48845986Y-63037075D01*
X48858958Y-63037075D01*
X48899860Y-63039219D01*
X48913699Y-63037027D01*
X48933098Y-63035500D01*
X48947115Y-63035500D01*
X48947118Y-63035500D01*
X48960832Y-63032584D01*
X48980117Y-63030046D01*
X48994118Y-63029313D01*
X49033702Y-63018705D01*
X49046368Y-63016013D01*
X49086822Y-63009607D01*
X49099904Y-63004584D01*
X49118557Y-62999060D01*
X49124375Y-62997823D01*
X49132275Y-62996144D01*
X49145075Y-62990444D01*
X49163417Y-62983948D01*
X49176960Y-62980320D01*
X49213457Y-62961723D01*
X49225308Y-62956447D01*
X49263539Y-62941772D01*
X49263538Y-62941772D01*
X49263542Y-62941771D01*
X49275297Y-62934136D01*
X49292402Y-62924850D01*
X49305196Y-62919154D01*
X49305197Y-62919153D01*
X49305202Y-62919151D01*
X49316542Y-62910910D01*
X49333124Y-62900749D01*
X49345621Y-62894383D01*
X49363016Y-62880295D01*
X49377451Y-62868607D01*
X49387934Y-62860989D01*
X49422297Y-62838675D01*
X49432217Y-62828753D01*
X49447000Y-62816128D01*
X49458343Y-62807888D01*
X49503737Y-62757471D01*
X49508151Y-62752819D01*
X49556147Y-62704825D01*
X49556147Y-62704822D01*
X49566352Y-62694619D01*
X49566355Y-62694614D01*
X50205151Y-62055819D01*
X50266475Y-62022334D01*
X50292833Y-62019500D01*
X52341281Y-62019500D01*
X52408320Y-62039185D01*
X52454075Y-62091989D01*
X52464019Y-62161147D01*
X52459212Y-62181818D01*
X52411798Y-62327742D01*
X52392012Y-62515999D01*
X52411798Y-62704257D01*
X52470292Y-62884284D01*
X52564938Y-63048216D01*
X52691601Y-63188889D01*
X52844741Y-63300151D01*
X53017669Y-63377144D01*
X53202824Y-63416500D01*
X53202826Y-63416500D01*
X53392120Y-63416500D01*
X53515555Y-63390262D01*
X53577275Y-63377144D01*
X53750202Y-63300151D01*
X53767210Y-63287793D01*
X53833010Y-63264314D01*
X53901064Y-63280137D01*
X53927774Y-63300431D01*
X54224058Y-63596715D01*
X54229178Y-63602153D01*
X54254350Y-63630566D01*
X54269072Y-63647184D01*
X54288568Y-63660641D01*
X54312621Y-63677244D01*
X54318573Y-63681352D01*
X54324591Y-63685780D01*
X54371944Y-63722878D01*
X54381180Y-63727034D01*
X54400731Y-63738062D01*
X54409066Y-63743816D01*
X54409068Y-63743816D01*
X54409070Y-63743818D01*
X54465326Y-63765152D01*
X54472220Y-63768009D01*
X54527069Y-63792695D01*
X54537044Y-63794522D01*
X54558656Y-63800547D01*
X54568128Y-63804140D01*
X54627841Y-63811390D01*
X54635185Y-63812507D01*
X54694394Y-63823358D01*
X54751102Y-63819927D01*
X54754434Y-63819726D01*
X54761921Y-63819500D01*
X56617079Y-63819500D01*
X56624566Y-63819726D01*
X56627706Y-63819915D01*
X56684606Y-63823358D01*
X56743782Y-63812513D01*
X56751181Y-63811387D01*
X56810872Y-63804140D01*
X56820335Y-63800550D01*
X56841958Y-63794522D01*
X56851932Y-63792695D01*
X56906808Y-63767996D01*
X56913673Y-63765152D01*
X56969930Y-63743818D01*
X56978270Y-63738060D01*
X56997819Y-63727035D01*
X57007057Y-63722878D01*
X57054413Y-63685775D01*
X57060426Y-63681352D01*
X57109929Y-63647183D01*
X57149823Y-63602150D01*
X57154924Y-63596731D01*
X58135731Y-62615924D01*
X58141150Y-62610823D01*
X58186183Y-62570929D01*
X58220355Y-62521420D01*
X58224775Y-62515413D01*
X58261878Y-62468057D01*
X58266035Y-62458819D01*
X58277060Y-62439270D01*
X58282818Y-62430930D01*
X58304152Y-62374673D01*
X58306996Y-62367808D01*
X58331695Y-62312932D01*
X58333522Y-62302958D01*
X58339552Y-62281331D01*
X58343140Y-62271871D01*
X58348081Y-62231181D01*
X58350387Y-62212181D01*
X58351514Y-62204778D01*
X58362358Y-62145606D01*
X58358726Y-62085566D01*
X58358500Y-62078079D01*
X58358500Y-61468000D01*
X63673571Y-61468000D01*
X63693243Y-61680310D01*
X63751595Y-61885390D01*
X63846631Y-62076252D01*
X63973042Y-62243645D01*
X63975128Y-62246407D01*
X64132698Y-62390052D01*
X64313981Y-62502298D01*
X64512802Y-62579321D01*
X64722390Y-62618500D01*
X64722392Y-62618500D01*
X64935608Y-62618500D01*
X64935610Y-62618500D01*
X65145198Y-62579321D01*
X65344019Y-62502298D01*
X65525302Y-62390052D01*
X65682872Y-62246407D01*
X65811366Y-62076255D01*
X65811366Y-62076253D01*
X65811368Y-62076252D01*
X65878714Y-61941000D01*
X65906405Y-61885389D01*
X65964756Y-61680310D01*
X65975529Y-61564047D01*
X66001315Y-61499111D01*
X66043622Y-61468804D01*
X66152130Y-61468804D01*
X66188503Y-61489668D01*
X66220693Y-61551681D01*
X66222471Y-61564048D01*
X66233243Y-61680310D01*
X66291595Y-61885390D01*
X66386631Y-62076252D01*
X66513042Y-62243645D01*
X66515128Y-62246407D01*
X66672698Y-62390052D01*
X66853981Y-62502298D01*
X67052802Y-62579321D01*
X67262390Y-62618500D01*
X67262392Y-62618500D01*
X67475608Y-62618500D01*
X67475610Y-62618500D01*
X67685198Y-62579321D01*
X67884019Y-62502298D01*
X68065302Y-62390052D01*
X68222872Y-62246407D01*
X68351366Y-62076255D01*
X68351366Y-62076253D01*
X68351368Y-62076252D01*
X68418714Y-61941000D01*
X68446405Y-61885389D01*
X68504756Y-61680310D01*
X68524429Y-61468000D01*
X68504756Y-61255690D01*
X68446405Y-61050611D01*
X68417689Y-60992940D01*
X68351368Y-60859747D01*
X68222873Y-60689594D01*
X68065301Y-60545947D01*
X67935494Y-60465574D01*
X67884019Y-60433702D01*
X67884017Y-60433701D01*
X67685198Y-60356679D01*
X67673365Y-60354467D01*
X67488385Y-60319888D01*
X67426106Y-60288221D01*
X67390833Y-60227908D01*
X67393767Y-60158100D01*
X67433976Y-60100960D01*
X67488384Y-60076111D01*
X67685198Y-60039321D01*
X67884019Y-59962298D01*
X68065302Y-59850052D01*
X68222872Y-59706407D01*
X68351366Y-59536255D01*
X68351366Y-59536253D01*
X68351368Y-59536252D01*
X68416456Y-59405535D01*
X68446405Y-59345389D01*
X68504756Y-59140310D01*
X68524429Y-58928000D01*
X68504756Y-58715690D01*
X68446405Y-58510611D01*
X68446014Y-58509827D01*
X68351368Y-58319747D01*
X68222873Y-58149594D01*
X68065301Y-58005947D01*
X67953802Y-57936909D01*
X67884019Y-57893702D01*
X67884017Y-57893701D01*
X67685198Y-57816679D01*
X67685198Y-57816678D01*
X67475610Y-57777500D01*
X67262390Y-57777500D01*
X67122664Y-57803619D01*
X67052801Y-57816679D01*
X66853982Y-57893701D01*
X66672698Y-58005947D01*
X66515126Y-58149594D01*
X66386631Y-58319747D01*
X66291595Y-58510609D01*
X66233243Y-58715689D01*
X66222471Y-58831951D01*
X66196685Y-58896888D01*
X66152130Y-58928804D01*
X66188503Y-58949668D01*
X66220693Y-59011681D01*
X66222471Y-59024048D01*
X66233243Y-59140310D01*
X66291595Y-59345390D01*
X66386631Y-59536252D01*
X66515126Y-59706405D01*
X66515128Y-59706407D01*
X66672698Y-59850052D01*
X66853981Y-59962298D01*
X67052802Y-60039321D01*
X67249613Y-60076111D01*
X67311893Y-60107779D01*
X67347166Y-60168092D01*
X67344232Y-60237900D01*
X67304023Y-60295040D01*
X67249613Y-60319888D01*
X67161060Y-60336442D01*
X67052801Y-60356679D01*
X66853982Y-60433701D01*
X66672698Y-60545947D01*
X66515126Y-60689594D01*
X66386631Y-60859747D01*
X66291595Y-61050609D01*
X66233243Y-61255689D01*
X66222471Y-61371951D01*
X66196685Y-61436888D01*
X66152130Y-61468804D01*
X66043622Y-61468804D01*
X66045869Y-61467194D01*
X66009497Y-61446331D01*
X65977307Y-61384318D01*
X65975529Y-61371951D01*
X65964756Y-61255689D01*
X65924832Y-61115374D01*
X65906405Y-61050611D01*
X65877689Y-60992940D01*
X65811368Y-60859747D01*
X65682873Y-60689594D01*
X65525301Y-60545947D01*
X65395494Y-60465574D01*
X65344019Y-60433702D01*
X65344017Y-60433701D01*
X65145198Y-60356679D01*
X65133365Y-60354467D01*
X64948385Y-60319888D01*
X64886106Y-60288221D01*
X64850833Y-60227908D01*
X64853767Y-60158100D01*
X64893976Y-60100960D01*
X64948384Y-60076111D01*
X65145198Y-60039321D01*
X65344019Y-59962298D01*
X65525302Y-59850052D01*
X65682872Y-59706407D01*
X65811366Y-59536255D01*
X65811366Y-59536253D01*
X65811368Y-59536252D01*
X65876456Y-59405535D01*
X65906405Y-59345389D01*
X65964756Y-59140310D01*
X65975529Y-59024047D01*
X66001315Y-58959111D01*
X66045869Y-58927194D01*
X66009497Y-58906331D01*
X65977307Y-58844318D01*
X65975529Y-58831951D01*
X65964756Y-58715689D01*
X65906404Y-58510609D01*
X65811368Y-58319747D01*
X65682873Y-58149594D01*
X65525301Y-58005947D01*
X65413802Y-57936909D01*
X65344019Y-57893702D01*
X65344017Y-57893701D01*
X65145198Y-57816679D01*
X65145197Y-57816678D01*
X64935610Y-57777500D01*
X64722390Y-57777500D01*
X64582664Y-57803619D01*
X64512801Y-57816679D01*
X64313982Y-57893701D01*
X64132698Y-58005947D01*
X63975126Y-58149594D01*
X63846631Y-58319747D01*
X63751595Y-58510609D01*
X63693243Y-58715689D01*
X63676454Y-58896888D01*
X63673571Y-58928000D01*
X63675239Y-58946003D01*
X63693243Y-59140310D01*
X63751595Y-59345390D01*
X63846631Y-59536252D01*
X63975126Y-59706405D01*
X63975128Y-59706407D01*
X64132698Y-59850052D01*
X64313981Y-59962298D01*
X64512802Y-60039321D01*
X64709613Y-60076111D01*
X64771893Y-60107779D01*
X64807166Y-60168092D01*
X64804232Y-60237900D01*
X64764023Y-60295040D01*
X64709613Y-60319888D01*
X64621060Y-60336442D01*
X64512801Y-60356679D01*
X64313982Y-60433701D01*
X64132698Y-60545947D01*
X63975126Y-60689594D01*
X63846631Y-60859747D01*
X63751595Y-61050609D01*
X63693243Y-61255689D01*
X63673571Y-61468000D01*
X58358500Y-61468000D01*
X58358500Y-60222919D01*
X58358726Y-60215432D01*
X58359668Y-60199860D01*
X58362358Y-60155394D01*
X58351507Y-60096185D01*
X58350390Y-60088841D01*
X58343140Y-60029128D01*
X58339547Y-60019656D01*
X58333522Y-59998044D01*
X58331695Y-59988069D01*
X58307007Y-59933217D01*
X58304147Y-59926313D01*
X58282818Y-59870070D01*
X58277061Y-59861730D01*
X58266035Y-59842181D01*
X58261877Y-59832941D01*
X58224785Y-59785597D01*
X58220355Y-59779577D01*
X58186183Y-59730071D01*
X58141153Y-59690178D01*
X58135715Y-59685058D01*
X56138940Y-57688283D01*
X56133822Y-57682847D01*
X56093929Y-57637817D01*
X56086559Y-57632730D01*
X56044436Y-57603654D01*
X56038405Y-57599216D01*
X55991054Y-57562120D01*
X55981813Y-57557961D01*
X55962273Y-57546941D01*
X55953930Y-57541182D01*
X55953927Y-57541181D01*
X55953926Y-57541180D01*
X55897701Y-57519856D01*
X55890783Y-57516991D01*
X55835929Y-57492303D01*
X55825952Y-57490475D01*
X55804339Y-57484450D01*
X55794873Y-57480860D01*
X55735172Y-57473610D01*
X55727771Y-57472483D01*
X55668607Y-57461641D01*
X55608566Y-57465274D01*
X55601079Y-57465500D01*
X29182940Y-57465500D01*
X29115901Y-57445815D01*
X29070146Y-57393011D01*
X29060202Y-57323853D01*
X29089227Y-57260297D01*
X29095259Y-57253819D01*
X29429020Y-56920058D01*
X29807826Y-56541252D01*
X29839816Y-56509262D01*
X29860190Y-56476834D01*
X29868222Y-56465515D01*
X29892091Y-56435587D01*
X29908698Y-56401100D01*
X29915426Y-56388928D01*
X29916010Y-56387999D01*
X61134073Y-56387999D01*
X61153737Y-56600219D01*
X61212062Y-56805208D01*
X61307058Y-56995988D01*
X61435497Y-57166067D01*
X61593001Y-57309652D01*
X61756156Y-57410673D01*
X61965330Y-56630016D01*
X62050955Y-56715641D01*
X62163852Y-56773165D01*
X62257519Y-56788000D01*
X62320481Y-56788000D01*
X62414148Y-56773165D01*
X62449430Y-56755187D01*
X62239677Y-57537999D01*
X62239678Y-57538000D01*
X62395561Y-57538000D01*
X62605060Y-57498837D01*
X62803798Y-57421846D01*
X62984996Y-57309654D01*
X63142502Y-57166067D01*
X63270938Y-56995992D01*
X63308747Y-56920058D01*
X62531018Y-56711667D01*
X62616641Y-56626045D01*
X62674165Y-56513148D01*
X62693986Y-56388000D01*
X62674165Y-56262852D01*
X62656186Y-56227566D01*
X63439346Y-56437414D01*
X63443926Y-56387999D01*
X68754073Y-56387999D01*
X68773737Y-56600219D01*
X68832062Y-56805208D01*
X68927058Y-56995988D01*
X69055497Y-57166067D01*
X69213001Y-57309652D01*
X69376156Y-57410673D01*
X69585330Y-56630016D01*
X69670955Y-56715641D01*
X69783852Y-56773165D01*
X69877519Y-56788000D01*
X69940481Y-56788000D01*
X70034148Y-56773165D01*
X70069430Y-56755187D01*
X69859677Y-57537999D01*
X69859678Y-57538000D01*
X70015561Y-57538000D01*
X70225060Y-57498837D01*
X70423798Y-57421846D01*
X70604996Y-57309654D01*
X70762502Y-57166067D01*
X70890938Y-56995992D01*
X70928747Y-56920058D01*
X70151018Y-56711667D01*
X70236641Y-56626045D01*
X70294165Y-56513148D01*
X70313986Y-56388000D01*
X70294165Y-56262852D01*
X70276186Y-56227566D01*
X71059346Y-56437414D01*
X71063926Y-56387998D01*
X71044262Y-56175780D01*
X70985937Y-55970791D01*
X70890941Y-55780011D01*
X70762502Y-55609932D01*
X70604998Y-55466347D01*
X70441842Y-55365325D01*
X70232667Y-56145981D01*
X70147045Y-56060359D01*
X70034148Y-56002835D01*
X69940481Y-55988000D01*
X69877519Y-55988000D01*
X69783852Y-56002835D01*
X69748566Y-56020813D01*
X69958322Y-55238000D01*
X69802439Y-55238000D01*
X69592939Y-55277162D01*
X69394201Y-55354153D01*
X69213003Y-55466345D01*
X69055497Y-55609932D01*
X68927060Y-55780009D01*
X68889251Y-55855940D01*
X69666982Y-56064331D01*
X69581359Y-56149955D01*
X69523835Y-56262852D01*
X69504014Y-56388000D01*
X69523835Y-56513148D01*
X69541812Y-56548431D01*
X68758651Y-56338584D01*
X68754073Y-56387999D01*
X63443926Y-56387999D01*
X63443926Y-56387998D01*
X63424262Y-56175780D01*
X63365937Y-55970791D01*
X63270941Y-55780011D01*
X63142502Y-55609932D01*
X62984998Y-55466347D01*
X62821842Y-55365325D01*
X62612667Y-56145981D01*
X62527045Y-56060359D01*
X62414148Y-56002835D01*
X62320481Y-55988000D01*
X62257519Y-55988000D01*
X62163852Y-56002835D01*
X62128566Y-56020813D01*
X62338322Y-55238000D01*
X62182439Y-55238000D01*
X61972939Y-55277162D01*
X61774201Y-55354153D01*
X61593003Y-55466345D01*
X61435497Y-55609932D01*
X61307060Y-55780009D01*
X61269251Y-55855940D01*
X62046982Y-56064331D01*
X61961359Y-56149955D01*
X61903835Y-56262852D01*
X61884014Y-56388000D01*
X61903835Y-56513148D01*
X61921812Y-56548431D01*
X61138651Y-56338584D01*
X61134073Y-56387999D01*
X29916010Y-56387999D01*
X29935789Y-56356522D01*
X29948431Y-56320391D01*
X29953751Y-56307549D01*
X29970360Y-56273061D01*
X29978882Y-56235721D01*
X29982720Y-56222399D01*
X29995368Y-56186255D01*
X29999655Y-56148197D01*
X30001980Y-56134520D01*
X30010500Y-56097194D01*
X30010500Y-55916806D01*
X30010500Y-46356936D01*
X30030184Y-46289901D01*
X30046813Y-46269264D01*
X30215078Y-46100999D01*
X61134073Y-46100999D01*
X61153737Y-46313219D01*
X61212062Y-46518208D01*
X61307058Y-46708988D01*
X61435497Y-46879067D01*
X61593001Y-47022652D01*
X61756156Y-47123673D01*
X61965330Y-46343016D01*
X62050955Y-46428641D01*
X62163852Y-46486165D01*
X62257519Y-46501000D01*
X62320481Y-46501000D01*
X62414148Y-46486165D01*
X62449430Y-46468187D01*
X62239677Y-47250999D01*
X62239678Y-47251000D01*
X62395561Y-47251000D01*
X62605060Y-47211837D01*
X62803798Y-47134846D01*
X62984996Y-47022654D01*
X63142502Y-46879067D01*
X63270938Y-46708992D01*
X63308747Y-46633058D01*
X62531018Y-46424667D01*
X62616641Y-46339045D01*
X62674165Y-46226148D01*
X62693986Y-46101000D01*
X62674165Y-45975852D01*
X62656186Y-45940566D01*
X63439346Y-46150414D01*
X63443926Y-46100999D01*
X68754073Y-46100999D01*
X68773737Y-46313219D01*
X68832062Y-46518208D01*
X68927058Y-46708988D01*
X69055497Y-46879067D01*
X69213001Y-47022652D01*
X69376156Y-47123673D01*
X69585330Y-46343016D01*
X69670955Y-46428641D01*
X69783852Y-46486165D01*
X69877519Y-46501000D01*
X69940481Y-46501000D01*
X70034148Y-46486165D01*
X70069430Y-46468187D01*
X69859677Y-47250999D01*
X69859678Y-47251000D01*
X70015561Y-47251000D01*
X70225060Y-47211837D01*
X70423798Y-47134846D01*
X70604996Y-47022654D01*
X70762502Y-46879067D01*
X70890938Y-46708992D01*
X70928747Y-46633058D01*
X70151018Y-46424667D01*
X70236641Y-46339045D01*
X70294165Y-46226148D01*
X70313986Y-46101000D01*
X70294165Y-45975852D01*
X70276186Y-45940566D01*
X71059346Y-46150414D01*
X71063926Y-46100998D01*
X71044262Y-45888780D01*
X70985937Y-45683791D01*
X70890941Y-45493011D01*
X70762502Y-45322932D01*
X70604998Y-45179347D01*
X70441842Y-45078325D01*
X70232667Y-45858981D01*
X70147045Y-45773359D01*
X70034148Y-45715835D01*
X69940481Y-45701000D01*
X69877519Y-45701000D01*
X69783852Y-45715835D01*
X69748566Y-45733813D01*
X69958322Y-44951000D01*
X69802439Y-44951000D01*
X69592939Y-44990162D01*
X69394201Y-45067153D01*
X69213003Y-45179345D01*
X69055497Y-45322932D01*
X68927060Y-45493009D01*
X68889251Y-45568940D01*
X69666982Y-45777331D01*
X69581359Y-45862955D01*
X69523835Y-45975852D01*
X69504014Y-46101000D01*
X69523835Y-46226148D01*
X69541812Y-46261431D01*
X68758651Y-46051584D01*
X68754073Y-46100999D01*
X63443926Y-46100999D01*
X63443926Y-46100998D01*
X63424262Y-45888780D01*
X63365937Y-45683791D01*
X63270941Y-45493011D01*
X63142502Y-45322932D01*
X62984998Y-45179347D01*
X62821842Y-45078325D01*
X62612667Y-45858981D01*
X62527045Y-45773359D01*
X62414148Y-45715835D01*
X62320481Y-45701000D01*
X62257519Y-45701000D01*
X62163852Y-45715835D01*
X62128566Y-45733813D01*
X62338322Y-44951000D01*
X62182439Y-44951000D01*
X61972939Y-44990162D01*
X61774201Y-45067153D01*
X61593003Y-45179345D01*
X61435497Y-45322932D01*
X61307060Y-45493009D01*
X61269251Y-45568940D01*
X62046982Y-45777331D01*
X61961359Y-45862955D01*
X61903835Y-45975852D01*
X61884014Y-46101000D01*
X61903835Y-46226148D01*
X61921812Y-46261431D01*
X61138651Y-46051584D01*
X61134073Y-46100999D01*
X30215078Y-46100999D01*
X32755077Y-43561000D01*
X63673571Y-43561000D01*
X63675239Y-43579003D01*
X63693243Y-43773310D01*
X63751595Y-43978390D01*
X63846631Y-44169252D01*
X63883067Y-44217500D01*
X63975128Y-44339407D01*
X64132698Y-44483052D01*
X64313981Y-44595298D01*
X64512802Y-44672321D01*
X64722390Y-44711500D01*
X64722392Y-44711500D01*
X64935608Y-44711500D01*
X64935610Y-44711500D01*
X65145198Y-44672321D01*
X65344019Y-44595298D01*
X65525302Y-44483052D01*
X65682872Y-44339407D01*
X65811366Y-44169255D01*
X65811366Y-44169253D01*
X65811368Y-44169252D01*
X65897624Y-43996023D01*
X65906405Y-43978389D01*
X65964756Y-43773310D01*
X65975529Y-43657047D01*
X66001315Y-43592111D01*
X66043622Y-43561804D01*
X66152130Y-43561804D01*
X66188503Y-43582668D01*
X66220693Y-43644681D01*
X66222471Y-43657048D01*
X66233243Y-43773310D01*
X66291595Y-43978390D01*
X66386631Y-44169252D01*
X66423067Y-44217500D01*
X66515128Y-44339407D01*
X66672698Y-44483052D01*
X66853981Y-44595298D01*
X67052802Y-44672321D01*
X67262390Y-44711500D01*
X67262392Y-44711500D01*
X67475608Y-44711500D01*
X67475610Y-44711500D01*
X67685198Y-44672321D01*
X67884019Y-44595298D01*
X68065302Y-44483052D01*
X68222872Y-44339407D01*
X68351366Y-44169255D01*
X68351366Y-44169253D01*
X68351368Y-44169252D01*
X68437624Y-43996023D01*
X68446405Y-43978389D01*
X68504756Y-43773310D01*
X68524429Y-43561000D01*
X68504756Y-43348690D01*
X68446405Y-43143611D01*
X68446014Y-43142827D01*
X68351368Y-42952747D01*
X68222873Y-42782594D01*
X68065301Y-42638947D01*
X67884017Y-42526701D01*
X67685198Y-42449679D01*
X67685197Y-42449679D01*
X67488385Y-42412888D01*
X67426106Y-42381221D01*
X67390833Y-42320908D01*
X67393767Y-42251100D01*
X67433976Y-42193960D01*
X67488384Y-42169111D01*
X67685198Y-42132321D01*
X67884019Y-42055298D01*
X68065302Y-41943052D01*
X68222872Y-41799407D01*
X68351366Y-41629255D01*
X68351366Y-41629253D01*
X68351368Y-41629252D01*
X68399080Y-41533430D01*
X68446405Y-41438389D01*
X68504756Y-41233310D01*
X68524429Y-41021000D01*
X68504756Y-40808690D01*
X68446405Y-40603611D01*
X68446014Y-40602827D01*
X68351368Y-40412747D01*
X68222873Y-40242594D01*
X68065301Y-40098947D01*
X67884017Y-39986701D01*
X67685198Y-39909679D01*
X67685197Y-39909679D01*
X67475610Y-39870500D01*
X67262390Y-39870500D01*
X67122664Y-39896619D01*
X67052801Y-39909679D01*
X66853982Y-39986701D01*
X66672698Y-40098947D01*
X66515126Y-40242594D01*
X66386631Y-40412747D01*
X66291595Y-40603609D01*
X66233243Y-40808689D01*
X66222471Y-40924951D01*
X66196685Y-40989888D01*
X66152130Y-41021804D01*
X66188503Y-41042668D01*
X66220693Y-41104681D01*
X66222471Y-41117048D01*
X66233243Y-41233310D01*
X66291595Y-41438390D01*
X66386631Y-41629252D01*
X66515126Y-41799405D01*
X66515128Y-41799407D01*
X66672698Y-41943052D01*
X66853981Y-42055298D01*
X67052802Y-42132321D01*
X67249613Y-42169111D01*
X67311893Y-42200779D01*
X67347166Y-42261092D01*
X67344232Y-42330900D01*
X67304023Y-42388040D01*
X67249613Y-42412888D01*
X67119475Y-42437215D01*
X67052801Y-42449679D01*
X66853982Y-42526701D01*
X66672698Y-42638947D01*
X66515126Y-42782594D01*
X66386631Y-42952747D01*
X66291595Y-43143609D01*
X66233243Y-43348689D01*
X66222471Y-43464951D01*
X66196685Y-43529888D01*
X66152130Y-43561804D01*
X66043622Y-43561804D01*
X66045869Y-43560194D01*
X66009497Y-43539331D01*
X65977307Y-43477318D01*
X65975529Y-43464951D01*
X65964756Y-43348689D01*
X65906404Y-43143609D01*
X65811368Y-42952747D01*
X65682873Y-42782594D01*
X65525301Y-42638947D01*
X65344017Y-42526701D01*
X65145198Y-42449679D01*
X65145197Y-42449679D01*
X64948385Y-42412888D01*
X64886106Y-42381221D01*
X64850833Y-42320908D01*
X64853767Y-42251100D01*
X64893976Y-42193960D01*
X64948384Y-42169111D01*
X65145198Y-42132321D01*
X65344019Y-42055298D01*
X65525302Y-41943052D01*
X65682872Y-41799407D01*
X65811366Y-41629255D01*
X65811366Y-41629253D01*
X65811368Y-41629252D01*
X65859080Y-41533430D01*
X65906405Y-41438389D01*
X65964756Y-41233310D01*
X65975529Y-41117047D01*
X66001315Y-41052111D01*
X66045869Y-41020194D01*
X66009497Y-40999331D01*
X65977307Y-40937318D01*
X65975529Y-40924951D01*
X65964756Y-40808689D01*
X65906404Y-40603609D01*
X65811368Y-40412747D01*
X65682873Y-40242594D01*
X65525301Y-40098947D01*
X65344017Y-39986701D01*
X65145198Y-39909679D01*
X65145198Y-39909678D01*
X64935610Y-39870500D01*
X64722390Y-39870500D01*
X64582664Y-39896619D01*
X64512801Y-39909679D01*
X64313982Y-39986701D01*
X64132698Y-40098947D01*
X63975126Y-40242594D01*
X63846631Y-40412747D01*
X63751595Y-40603609D01*
X63693243Y-40808689D01*
X63673571Y-41021000D01*
X63693243Y-41233310D01*
X63751595Y-41438390D01*
X63846631Y-41629252D01*
X63975126Y-41799405D01*
X63975128Y-41799407D01*
X64132698Y-41943052D01*
X64313981Y-42055298D01*
X64512802Y-42132321D01*
X64709613Y-42169111D01*
X64771893Y-42200779D01*
X64807166Y-42261092D01*
X64804232Y-42330900D01*
X64764023Y-42388040D01*
X64709613Y-42412888D01*
X64579475Y-42437215D01*
X64512801Y-42449679D01*
X64313982Y-42526701D01*
X64132698Y-42638947D01*
X63975126Y-42782594D01*
X63846631Y-42952747D01*
X63751595Y-43143609D01*
X63693243Y-43348689D01*
X63684646Y-43441477D01*
X63673571Y-43561000D01*
X32755077Y-43561000D01*
X37835079Y-38480999D01*
X61134073Y-38480999D01*
X61153737Y-38693219D01*
X61212062Y-38898208D01*
X61307058Y-39088988D01*
X61435497Y-39259067D01*
X61593001Y-39402652D01*
X61756156Y-39503673D01*
X61965330Y-38723016D01*
X62050955Y-38808641D01*
X62163852Y-38866165D01*
X62257519Y-38881000D01*
X62320481Y-38881000D01*
X62414148Y-38866165D01*
X62449430Y-38848187D01*
X62239677Y-39630999D01*
X62239678Y-39631000D01*
X62395561Y-39631000D01*
X62605060Y-39591837D01*
X62803798Y-39514846D01*
X62984996Y-39402654D01*
X63142502Y-39259067D01*
X63270938Y-39088992D01*
X63308747Y-39013058D01*
X62531018Y-38804667D01*
X62616641Y-38719045D01*
X62674165Y-38606148D01*
X62693986Y-38481000D01*
X62674165Y-38355852D01*
X62656186Y-38320566D01*
X63439346Y-38530414D01*
X63443926Y-38480999D01*
X68754073Y-38480999D01*
X68773737Y-38693219D01*
X68832062Y-38898208D01*
X68927058Y-39088988D01*
X69055497Y-39259067D01*
X69213001Y-39402652D01*
X69376156Y-39503673D01*
X69585330Y-38723016D01*
X69670955Y-38808641D01*
X69783852Y-38866165D01*
X69877519Y-38881000D01*
X69940481Y-38881000D01*
X70034148Y-38866165D01*
X70069430Y-38848187D01*
X69859677Y-39630999D01*
X69859678Y-39631000D01*
X70015561Y-39631000D01*
X70225060Y-39591837D01*
X70423798Y-39514846D01*
X70604996Y-39402654D01*
X70762502Y-39259067D01*
X70890938Y-39088992D01*
X70928747Y-39013058D01*
X70151018Y-38804667D01*
X70236641Y-38719045D01*
X70294165Y-38606148D01*
X70313986Y-38481000D01*
X70294165Y-38355852D01*
X70276186Y-38320566D01*
X71059346Y-38530414D01*
X71063926Y-38480998D01*
X71044262Y-38268780D01*
X70985937Y-38063791D01*
X70890941Y-37873011D01*
X70762502Y-37702932D01*
X70604998Y-37559347D01*
X70441842Y-37458325D01*
X70232667Y-38238981D01*
X70147045Y-38153359D01*
X70034148Y-38095835D01*
X69940481Y-38081000D01*
X69877519Y-38081000D01*
X69783852Y-38095835D01*
X69748566Y-38113813D01*
X69958322Y-37331000D01*
X69802439Y-37331000D01*
X69592939Y-37370162D01*
X69394201Y-37447153D01*
X69213003Y-37559345D01*
X69055497Y-37702932D01*
X68927060Y-37873009D01*
X68889251Y-37948940D01*
X69666982Y-38157331D01*
X69581359Y-38242955D01*
X69523835Y-38355852D01*
X69504014Y-38481000D01*
X69523835Y-38606148D01*
X69541812Y-38641431D01*
X68758651Y-38431584D01*
X68754073Y-38480999D01*
X63443926Y-38480999D01*
X63443926Y-38480998D01*
X63424262Y-38268780D01*
X63365937Y-38063791D01*
X63270941Y-37873011D01*
X63142502Y-37702932D01*
X62984998Y-37559347D01*
X62821842Y-37458325D01*
X62612667Y-38238981D01*
X62527045Y-38153359D01*
X62414148Y-38095835D01*
X62320481Y-38081000D01*
X62257519Y-38081000D01*
X62163852Y-38095835D01*
X62128566Y-38113813D01*
X62338322Y-37331000D01*
X62182439Y-37331000D01*
X61972939Y-37370162D01*
X61774201Y-37447153D01*
X61593003Y-37559345D01*
X61435497Y-37702932D01*
X61307060Y-37873009D01*
X61269251Y-37948940D01*
X62046982Y-38157331D01*
X61961359Y-38242955D01*
X61903835Y-38355852D01*
X61884014Y-38481000D01*
X61903835Y-38606148D01*
X61921812Y-38641431D01*
X61138651Y-38431584D01*
X61134073Y-38480999D01*
X37835079Y-38480999D01*
X38776259Y-37539819D01*
X38837582Y-37506334D01*
X38863940Y-37503500D01*
X51525195Y-37503500D01*
X51536009Y-37501031D01*
X51562520Y-37494980D01*
X51576197Y-37492655D01*
X51614255Y-37488368D01*
X51650399Y-37475720D01*
X51663721Y-37471882D01*
X51701061Y-37463360D01*
X51735549Y-37446750D01*
X51748391Y-37441431D01*
X51784522Y-37428789D01*
X51816932Y-37408423D01*
X51829103Y-37401697D01*
X51863587Y-37385091D01*
X51893515Y-37361222D01*
X51904834Y-37353190D01*
X51937262Y-37332816D01*
X52064816Y-37205262D01*
X52064816Y-37205261D01*
X52571566Y-36698510D01*
X52608804Y-36672917D01*
X52776730Y-36598151D01*
X52776730Y-36598150D01*
X52776732Y-36598150D01*
X52929870Y-36486889D01*
X53056533Y-36346216D01*
X53151179Y-36182284D01*
X53209674Y-36002256D01*
X53229460Y-35814000D01*
X53209674Y-35625744D01*
X53203523Y-35606816D01*
X53201529Y-35536978D01*
X53237609Y-35477145D01*
X53300310Y-35446316D01*
X53321455Y-35444500D01*
X54878639Y-35444500D01*
X54945678Y-35464185D01*
X54966320Y-35480819D01*
X55336274Y-35850773D01*
X55340743Y-35855482D01*
X55386128Y-35905887D01*
X55441001Y-35945755D01*
X55446151Y-35949707D01*
X55498851Y-35992383D01*
X55511347Y-35998750D01*
X55527926Y-36008909D01*
X55539267Y-36017149D01*
X55539273Y-36017153D01*
X55601216Y-36044731D01*
X55607075Y-36047525D01*
X55667512Y-36078320D01*
X55681057Y-36081949D01*
X55699390Y-36088441D01*
X55712197Y-36094144D01*
X55778561Y-36108249D01*
X55784817Y-36109751D01*
X55850354Y-36127312D01*
X55864348Y-36128045D01*
X55883639Y-36130584D01*
X55897354Y-36133500D01*
X55965180Y-36133500D01*
X55971669Y-36133669D01*
X56039388Y-36137219D01*
X56053227Y-36135027D01*
X56072626Y-36133500D01*
X56086645Y-36133500D01*
X56086646Y-36133500D01*
X56152996Y-36119395D01*
X56159359Y-36118216D01*
X56226350Y-36107607D01*
X56239431Y-36102585D01*
X56258088Y-36097059D01*
X56271803Y-36094144D01*
X56333776Y-36066550D01*
X56339742Y-36064078D01*
X56403070Y-36039771D01*
X56414826Y-36032135D01*
X56431928Y-36022849D01*
X56444730Y-36017151D01*
X56478820Y-35992383D01*
X56499598Y-35977287D01*
X56504938Y-35973616D01*
X56561825Y-35936674D01*
X56571739Y-35926758D01*
X56586530Y-35914126D01*
X56597871Y-35905888D01*
X56643274Y-35855461D01*
X56647688Y-35850809D01*
X56695674Y-35802825D01*
X56703304Y-35791074D01*
X56715153Y-35775631D01*
X56724533Y-35765216D01*
X56758450Y-35706468D01*
X56761837Y-35700942D01*
X56787244Y-35661819D01*
X56798771Y-35644070D01*
X56803792Y-35630987D01*
X56812169Y-35613423D01*
X56819179Y-35601284D01*
X56840145Y-35536752D01*
X56842293Y-35530686D01*
X56866607Y-35467350D01*
X56868798Y-35453510D01*
X56873337Y-35434599D01*
X56877674Y-35421256D01*
X56884767Y-35353763D01*
X56885607Y-35347382D01*
X56896219Y-35280388D01*
X56895484Y-35266379D01*
X56895993Y-35246948D01*
X56897460Y-35233000D01*
X56890366Y-35165505D01*
X56889862Y-35159094D01*
X56886312Y-35091354D01*
X56882685Y-35077818D01*
X56879139Y-35058684D01*
X56877674Y-35044742D01*
X56856716Y-34980244D01*
X56854871Y-34974015D01*
X56837321Y-34908514D01*
X56830958Y-34896027D01*
X56823508Y-34878041D01*
X56819179Y-34864716D01*
X56785249Y-34805949D01*
X56782178Y-34800292D01*
X56762844Y-34762345D01*
X56751383Y-34739850D01*
X56742562Y-34728958D01*
X56731537Y-34712916D01*
X56724535Y-34700787D01*
X56724534Y-34700786D01*
X56724533Y-34700784D01*
X56679127Y-34650355D01*
X56674932Y-34645442D01*
X56664161Y-34632142D01*
X56662119Y-34629620D01*
X56647724Y-34615225D01*
X56643255Y-34610516D01*
X56597871Y-34560111D01*
X56586531Y-34551873D01*
X56571734Y-34539235D01*
X55996764Y-33964265D01*
X55984125Y-33949467D01*
X55976036Y-33938333D01*
X55975888Y-33938129D01*
X55931120Y-33897820D01*
X55925482Y-33892743D01*
X55920773Y-33888274D01*
X55908679Y-33876180D01*
X55906380Y-33873881D01*
X55903863Y-33871843D01*
X55903859Y-33871839D01*
X55890557Y-33861067D01*
X55885625Y-33856854D01*
X55835215Y-33811466D01*
X55823076Y-33804458D01*
X55807043Y-33793439D01*
X55796149Y-33784617D01*
X55796147Y-33784616D01*
X55796146Y-33784615D01*
X55735713Y-33753823D01*
X55730008Y-33750725D01*
X55671283Y-33716820D01*
X55657953Y-33712489D01*
X55639974Y-33705042D01*
X55627487Y-33698679D01*
X55561976Y-33681125D01*
X55555754Y-33679282D01*
X55491254Y-33658325D01*
X55477315Y-33656860D01*
X55458187Y-33653315D01*
X55444645Y-33649686D01*
X55376909Y-33646136D01*
X55370447Y-33645628D01*
X55353413Y-33643838D01*
X55353404Y-33643837D01*
X55350192Y-33643500D01*
X55346947Y-33643500D01*
X55329826Y-33643500D01*
X55323337Y-33643330D01*
X55318375Y-33643069D01*
X55255612Y-33639781D01*
X55255611Y-33639781D01*
X55248076Y-33640974D01*
X55241771Y-33641973D01*
X55222374Y-33643500D01*
X48760626Y-33643500D01*
X48741228Y-33641973D01*
X48727388Y-33639781D01*
X48659670Y-33643330D01*
X48653180Y-33643500D01*
X48632808Y-33643500D01*
X48629593Y-33643837D01*
X48629588Y-33643838D01*
X48617953Y-33645060D01*
X48612539Y-33645629D01*
X48606084Y-33646137D01*
X48538351Y-33649687D01*
X48524809Y-33653316D01*
X48505685Y-33656860D01*
X48491744Y-33658325D01*
X48427245Y-33679282D01*
X48421023Y-33681126D01*
X48355510Y-33698680D01*
X48343021Y-33705044D01*
X48325052Y-33712487D01*
X48311717Y-33716820D01*
X48252996Y-33750722D01*
X48247295Y-33753818D01*
X48186845Y-33784619D01*
X48175950Y-33793442D01*
X48159922Y-33804458D01*
X48147784Y-33811466D01*
X48097376Y-33856852D01*
X48092451Y-33861059D01*
X48079141Y-33871839D01*
X48076620Y-33873881D01*
X48074337Y-33876163D01*
X48074319Y-33876180D01*
X48062209Y-33888289D01*
X48057506Y-33892752D01*
X48040457Y-33908103D01*
X47977466Y-33938333D01*
X47908130Y-33929708D01*
X47895485Y-33923340D01*
X47851283Y-33897820D01*
X47837953Y-33893489D01*
X47819974Y-33886042D01*
X47807487Y-33879679D01*
X47741976Y-33862125D01*
X47735754Y-33860282D01*
X47671254Y-33839325D01*
X47657315Y-33837860D01*
X47638187Y-33834315D01*
X47624645Y-33830686D01*
X47556909Y-33827136D01*
X47550447Y-33826628D01*
X47533413Y-33824838D01*
X47533404Y-33824837D01*
X47530192Y-33824500D01*
X47526947Y-33824500D01*
X47509826Y-33824500D01*
X47503337Y-33824330D01*
X47498375Y-33824069D01*
X47435612Y-33820781D01*
X47435611Y-33820781D01*
X47428076Y-33821974D01*
X47421771Y-33822973D01*
X47402374Y-33824500D01*
X37364633Y-33824500D01*
X37345234Y-33822973D01*
X37331389Y-33820780D01*
X37263652Y-33824330D01*
X37257162Y-33824500D01*
X37236808Y-33824500D01*
X37233602Y-33824836D01*
X37233581Y-33824838D01*
X37216556Y-33826628D01*
X37210087Y-33827137D01*
X37142351Y-33830687D01*
X37128804Y-33834316D01*
X37109689Y-33837859D01*
X37095743Y-33839325D01*
X37031238Y-33860284D01*
X37025016Y-33862127D01*
X36959514Y-33879678D01*
X36947019Y-33886045D01*
X36929054Y-33893486D01*
X36915717Y-33897820D01*
X36856987Y-33931726D01*
X36851288Y-33934820D01*
X36790851Y-33965615D01*
X36779948Y-33974444D01*
X36763925Y-33985456D01*
X36751783Y-33992466D01*
X36701394Y-34037836D01*
X36696468Y-34042044D01*
X36683137Y-34052840D01*
X36683118Y-34052856D01*
X36680620Y-34054880D01*
X36678348Y-34057151D01*
X36678320Y-34057177D01*
X36666199Y-34069298D01*
X36661498Y-34073760D01*
X36611108Y-34119132D01*
X36602872Y-34130468D01*
X36590238Y-34145260D01*
X26344264Y-44391235D01*
X26329472Y-44403869D01*
X26318132Y-44412108D01*
X26272751Y-44462508D01*
X26268289Y-44467209D01*
X26256180Y-44479319D01*
X26256163Y-44479337D01*
X26253881Y-44481620D01*
X26251846Y-44484132D01*
X26251843Y-44484136D01*
X26241059Y-44497451D01*
X26236852Y-44502376D01*
X26191466Y-44552784D01*
X26184458Y-44564922D01*
X26173442Y-44580950D01*
X26164619Y-44591845D01*
X26133818Y-44652295D01*
X26130722Y-44657996D01*
X26096822Y-44716713D01*
X26092488Y-44730052D01*
X26085044Y-44748022D01*
X26078680Y-44760512D01*
X26061126Y-44826017D01*
X26059284Y-44832234D01*
X26038325Y-44896743D01*
X26036860Y-44910686D01*
X26033315Y-44929814D01*
X26029686Y-44943355D01*
X26026136Y-45011091D01*
X26025628Y-45017553D01*
X26023838Y-45034586D01*
X26023837Y-45034596D01*
X26023500Y-45037808D01*
X26023499Y-45041038D01*
X26023499Y-45041055D01*
X26023499Y-45058180D01*
X26023329Y-45064661D01*
X26019780Y-45132386D01*
X26021973Y-45146226D01*
X26023500Y-45165626D01*
X26023500Y-47388769D01*
X26003815Y-47455808D01*
X25987181Y-47476450D01*
X25856288Y-47607342D01*
X25764186Y-47756664D01*
X25755624Y-47782505D01*
X25715850Y-47839950D01*
X25651334Y-47866772D01*
X25637918Y-47867500D01*
X24388391Y-47867500D01*
X24323113Y-47848927D01*
X24215838Y-47782505D01*
X24137019Y-47733702D01*
X24137017Y-47733701D01*
X23938198Y-47656679D01*
X23938198Y-47656678D01*
X23728610Y-47617500D01*
X23515390Y-47617500D01*
X23375664Y-47643619D01*
X23305801Y-47656679D01*
X23106982Y-47733701D01*
X22925698Y-47845947D01*
X22768126Y-47989594D01*
X22639631Y-48159747D01*
X22544595Y-48350609D01*
X22486243Y-48555689D01*
X22479970Y-48623397D01*
X22454184Y-48688334D01*
X22397384Y-48729022D01*
X22327603Y-48732542D01*
X22266996Y-48697777D01*
X22234806Y-48635764D01*
X22232499Y-48611956D01*
X22232499Y-48073439D01*
X22232499Y-48070128D01*
X22226091Y-48010517D01*
X22175796Y-47875669D01*
X22089546Y-47760454D01*
X21974331Y-47674204D01*
X21839483Y-47623909D01*
X21779873Y-47617500D01*
X21776550Y-47617500D01*
X20387439Y-47617500D01*
X20387420Y-47617500D01*
X20384128Y-47617501D01*
X20380848Y-47617853D01*
X20380840Y-47617854D01*
X20324515Y-47623909D01*
X20189669Y-47674204D01*
X20074454Y-47760454D01*
X19988204Y-47875668D01*
X19937910Y-48010515D01*
X19937909Y-48010517D01*
X19931500Y-48070127D01*
X19931500Y-48073448D01*
X19931500Y-48073449D01*
X19931500Y-49462560D01*
X19931500Y-49462578D01*
X12065500Y-49462578D01*
X12065500Y-42576472D01*
X16457000Y-42576472D01*
X16457211Y-42581587D01*
X16472387Y-42764737D01*
X16533413Y-43005721D01*
X16633266Y-43233365D01*
X16769233Y-43441477D01*
X16937596Y-43624368D01*
X17133766Y-43777053D01*
X17352393Y-43895368D01*
X17587508Y-43976083D01*
X17706999Y-43996023D01*
X17707000Y-43996022D01*
X17707000Y-42950686D01*
X17747156Y-42976493D01*
X17885111Y-43017000D01*
X18028889Y-43017000D01*
X18166844Y-42976493D01*
X18207000Y-42950686D01*
X18207000Y-43996023D01*
X18326491Y-43976083D01*
X18561606Y-43895368D01*
X18780233Y-43777053D01*
X18800115Y-43761578D01*
X22756500Y-43761578D01*
X22756501Y-43764872D01*
X22762909Y-43824483D01*
X22813204Y-43959331D01*
X22899454Y-44074546D01*
X23014669Y-44160796D01*
X23149517Y-44211091D01*
X23209127Y-44217500D01*
X25304872Y-44217499D01*
X25364483Y-44211091D01*
X25499331Y-44160796D01*
X25614546Y-44074546D01*
X25700796Y-43959331D01*
X25751091Y-43824483D01*
X25757500Y-43764873D01*
X25757499Y-39069128D01*
X25751091Y-39009517D01*
X25700796Y-38874669D01*
X25614546Y-38759454D01*
X25499331Y-38673204D01*
X25364483Y-38622909D01*
X25304873Y-38616500D01*
X25301550Y-38616500D01*
X23212439Y-38616500D01*
X23212420Y-38616500D01*
X23209128Y-38616501D01*
X23205848Y-38616853D01*
X23205840Y-38616854D01*
X23149515Y-38622909D01*
X23014669Y-38673204D01*
X22899454Y-38759454D01*
X22813204Y-38874668D01*
X22762909Y-39009516D01*
X22757810Y-39056946D01*
X22756500Y-39069127D01*
X22756500Y-39072448D01*
X22756500Y-39072449D01*
X22756500Y-43761560D01*
X22756500Y-43761578D01*
X18800115Y-43761578D01*
X18976403Y-43624368D01*
X19144766Y-43441477D01*
X19280733Y-43233365D01*
X19380586Y-43005721D01*
X19441612Y-42764737D01*
X19456788Y-42581587D01*
X19457000Y-42576472D01*
X19457000Y-41667000D01*
X18457000Y-41667000D01*
X18457000Y-41167000D01*
X19457000Y-41167000D01*
X19457000Y-40257527D01*
X19456788Y-40252412D01*
X19441612Y-40069262D01*
X19380586Y-39828278D01*
X19280733Y-39600634D01*
X19144766Y-39392522D01*
X18976403Y-39209631D01*
X18780233Y-39056946D01*
X18561606Y-38938631D01*
X18326493Y-38857916D01*
X18207000Y-38837976D01*
X18207000Y-39883313D01*
X18166844Y-39857507D01*
X18028889Y-39817000D01*
X17885111Y-39817000D01*
X17747156Y-39857507D01*
X17707000Y-39883313D01*
X17707000Y-38837976D01*
X17706999Y-38837976D01*
X17587506Y-38857916D01*
X17352393Y-38938631D01*
X17133766Y-39056946D01*
X16937596Y-39209631D01*
X16769233Y-39392522D01*
X16633266Y-39600634D01*
X16533413Y-39828278D01*
X16472387Y-40069262D01*
X16457211Y-40252412D01*
X16457000Y-40257527D01*
X16457000Y-41167000D01*
X17457000Y-41167000D01*
X17457000Y-41667000D01*
X16457000Y-41667000D01*
X16457000Y-42576472D01*
X12065500Y-42576472D01*
X12065500Y-36366999D01*
X18777976Y-36366999D01*
X18777978Y-36367000D01*
X19823314Y-36367000D01*
X19797507Y-36407156D01*
X19757000Y-36545111D01*
X19757000Y-36688889D01*
X19797507Y-36826844D01*
X19823314Y-36867000D01*
X18777977Y-36867000D01*
X18797916Y-36986491D01*
X18878631Y-37221606D01*
X18996946Y-37440233D01*
X19149631Y-37636403D01*
X19332522Y-37804766D01*
X19540634Y-37940733D01*
X19768278Y-38040586D01*
X20009262Y-38101612D01*
X20192412Y-38116788D01*
X20197527Y-38117000D01*
X21107000Y-38117000D01*
X21107000Y-37117000D01*
X21607000Y-37117000D01*
X21607000Y-38117000D01*
X22516473Y-38117000D01*
X22521587Y-38116788D01*
X22704737Y-38101612D01*
X22945721Y-38040586D01*
X23173365Y-37940733D01*
X23381477Y-37804766D01*
X23564368Y-37636403D01*
X23717053Y-37440233D01*
X23835368Y-37221606D01*
X23916083Y-36986491D01*
X23936023Y-36867000D01*
X22890686Y-36867000D01*
X22916493Y-36826844D01*
X22957000Y-36688889D01*
X22957000Y-36545111D01*
X22916493Y-36407156D01*
X22890686Y-36367000D01*
X23936022Y-36367000D01*
X23936023Y-36366999D01*
X23916083Y-36247508D01*
X23835368Y-36012393D01*
X23717053Y-35793766D01*
X23564368Y-35597596D01*
X23381477Y-35429233D01*
X23173365Y-35293266D01*
X22945721Y-35193413D01*
X22704737Y-35132387D01*
X22521587Y-35117211D01*
X22516473Y-35117000D01*
X21607000Y-35117000D01*
X21607000Y-36117000D01*
X21107000Y-36117000D01*
X21107000Y-35117000D01*
X20197527Y-35117000D01*
X20192412Y-35117211D01*
X20009262Y-35132387D01*
X19768278Y-35193413D01*
X19540634Y-35293266D01*
X19332522Y-35429233D01*
X19149631Y-35597596D01*
X18996946Y-35793766D01*
X18878631Y-36012393D01*
X18797916Y-36247508D01*
X18777976Y-36366999D01*
X12065500Y-36366999D01*
X12065500Y-32382500D01*
X12085185Y-32315461D01*
X12137989Y-32269706D01*
X12189500Y-32258500D01*
X71884500Y-32258500D01*
X71951539Y-32278185D01*
G37*
%TD.AperFunction*%
%TD*%
M02*
