M48
; DRILL file {KiCad 7.0.2} date Fri May 26 14:56:46 2023
; FORMAT={-:-/ absolute / inch / decimal}
; #@! TF.CreationDate,2023-05-26T14:56:46-03:00
; #@! TF.GenerationSoftware,Kicad,Pcbnew,7.0.2
; #@! TF.FileFunction,MixedPlating,1,2
FMAT,2
INCH
; #@! TA.AperFunction,Plated,PTH,ViaDrill
T1C0.0157
; #@! TA.AperFunction,Plated,PTH,ComponentDrill
T2C0.0315
; #@! TA.AperFunction,Plated,PTH,ComponentDrill
T3C0.0394
; #@! TA.AperFunction,Plated,PTH,ComponentDrill
T4C0.0728
%
G90
G05
T1
X0.895Y-2.615
X1.22Y-1.47
X1.69Y-2.5363
X1.725Y-1.555
X1.735Y-2.595
X1.8894Y-1.3871
X1.9233Y-2.4463
X1.985Y-1.555
X2.0059Y-2.5945
X2.06Y-1.41
X2.0983Y-2.4613
X2.1981Y-2.4161
X2.2044Y-1.3871
T2
X0.83Y-1.92
X0.88Y-1.97
X0.93Y-1.92
X2.4523Y-1.515
X2.4523Y-1.815
X2.4523Y-2.22
X2.4523Y-2.52
X2.5523Y-1.615
X2.5523Y-1.715
X2.5523Y-2.32
X2.5523Y-2.42
X2.6523Y-1.615
X2.6523Y-1.715
X2.6523Y-2.32
X2.6523Y-2.42
X2.7523Y-1.515
X2.7523Y-1.815
X2.7523Y-2.22
X2.7523Y-2.52
T4
X0.565Y-2.19
X0.565Y-2.39
X1.065Y-2.105
X1.065Y-2.29
X1.065Y-2.475
T3
G00X0.707Y-1.6739
M15
G01X0.707Y-1.5873
M16
G05
G00X0.7975Y-1.4416
M15
G01X0.8841Y-1.4416
M16
G05
G00X0.955Y-1.6818
M15
G01X0.955Y-1.5794
M16
G05
T0
M30
