%TF.GenerationSoftware,KiCad,Pcbnew,7.0.2*%
%TF.CreationDate,2023-05-24T14:07:00-03:00*%
%TF.ProjectId,Painel,5061696e-656c-42e6-9b69-6361645f7063,rev?*%
%TF.SameCoordinates,Original*%
%TF.FileFunction,Copper,L1,Top*%
%TF.FilePolarity,Positive*%
%FSLAX46Y46*%
G04 Gerber Fmt 4.6, Leading zero omitted, Abs format (unit mm)*
G04 Created by KiCad (PCBNEW 7.0.2) date 2023-05-24 14:07:00*
%MOMM*%
%LPD*%
G01*
G04 APERTURE LIST*
%ADD10C,0.300000*%
%TA.AperFunction,NonConductor*%
%ADD11C,0.300000*%
%TD*%
%TA.AperFunction,NonConductor*%
%ADD12C,0.200000*%
%TD*%
%TA.AperFunction,ViaPad*%
%ADD13C,2.800000*%
%TD*%
G04 APERTURE END LIST*
D10*
D11*
X154914399Y-98921028D02*
X154200113Y-98921028D01*
X154200113Y-98921028D02*
X154128685Y-99635314D01*
X154128685Y-99635314D02*
X154200113Y-99563885D01*
X154200113Y-99563885D02*
X154342971Y-99492457D01*
X154342971Y-99492457D02*
X154700113Y-99492457D01*
X154700113Y-99492457D02*
X154842971Y-99563885D01*
X154842971Y-99563885D02*
X154914399Y-99635314D01*
X154914399Y-99635314D02*
X154985828Y-99778171D01*
X154985828Y-99778171D02*
X154985828Y-100135314D01*
X154985828Y-100135314D02*
X154914399Y-100278171D01*
X154914399Y-100278171D02*
X154842971Y-100349600D01*
X154842971Y-100349600D02*
X154700113Y-100421028D01*
X154700113Y-100421028D02*
X154342971Y-100421028D01*
X154342971Y-100421028D02*
X154200113Y-100349600D01*
X154200113Y-100349600D02*
X154128685Y-100278171D01*
X155700113Y-100349600D02*
X155700113Y-100421028D01*
X155700113Y-100421028D02*
X155628684Y-100563885D01*
X155628684Y-100563885D02*
X155557256Y-100635314D01*
X156414399Y-100421028D02*
X156700113Y-100421028D01*
X156700113Y-100421028D02*
X156842970Y-100349600D01*
X156842970Y-100349600D02*
X156914399Y-100278171D01*
X156914399Y-100278171D02*
X157057256Y-100063885D01*
X157057256Y-100063885D02*
X157128685Y-99778171D01*
X157128685Y-99778171D02*
X157128685Y-99206742D01*
X157128685Y-99206742D02*
X157057256Y-99063885D01*
X157057256Y-99063885D02*
X156985828Y-98992457D01*
X156985828Y-98992457D02*
X156842970Y-98921028D01*
X156842970Y-98921028D02*
X156557256Y-98921028D01*
X156557256Y-98921028D02*
X156414399Y-98992457D01*
X156414399Y-98992457D02*
X156342970Y-99063885D01*
X156342970Y-99063885D02*
X156271542Y-99206742D01*
X156271542Y-99206742D02*
X156271542Y-99563885D01*
X156271542Y-99563885D02*
X156342970Y-99706742D01*
X156342970Y-99706742D02*
X156414399Y-99778171D01*
X156414399Y-99778171D02*
X156557256Y-99849600D01*
X156557256Y-99849600D02*
X156842970Y-99849600D01*
X156842970Y-99849600D02*
X156985828Y-99778171D01*
X156985828Y-99778171D02*
X157057256Y-99706742D01*
X157057256Y-99706742D02*
X157128685Y-99563885D01*
X158414399Y-98921028D02*
X158128684Y-98921028D01*
X158128684Y-98921028D02*
X157985827Y-98992457D01*
X157985827Y-98992457D02*
X157914399Y-99063885D01*
X157914399Y-99063885D02*
X157771541Y-99278171D01*
X157771541Y-99278171D02*
X157700113Y-99563885D01*
X157700113Y-99563885D02*
X157700113Y-100135314D01*
X157700113Y-100135314D02*
X157771541Y-100278171D01*
X157771541Y-100278171D02*
X157842970Y-100349600D01*
X157842970Y-100349600D02*
X157985827Y-100421028D01*
X157985827Y-100421028D02*
X158271541Y-100421028D01*
X158271541Y-100421028D02*
X158414399Y-100349600D01*
X158414399Y-100349600D02*
X158485827Y-100278171D01*
X158485827Y-100278171D02*
X158557256Y-100135314D01*
X158557256Y-100135314D02*
X158557256Y-99778171D01*
X158557256Y-99778171D02*
X158485827Y-99635314D01*
X158485827Y-99635314D02*
X158414399Y-99563885D01*
X158414399Y-99563885D02*
X158271541Y-99492457D01*
X158271541Y-99492457D02*
X157985827Y-99492457D01*
X157985827Y-99492457D02*
X157842970Y-99563885D01*
X157842970Y-99563885D02*
X157771541Y-99635314D01*
X157771541Y-99635314D02*
X157700113Y-99778171D01*
X159271541Y-100421028D02*
X159557255Y-100421028D01*
X159557255Y-100421028D02*
X159700112Y-100349600D01*
X159700112Y-100349600D02*
X159771541Y-100278171D01*
X159771541Y-100278171D02*
X159914398Y-100063885D01*
X159914398Y-100063885D02*
X159985827Y-99778171D01*
X159985827Y-99778171D02*
X159985827Y-99206742D01*
X159985827Y-99206742D02*
X159914398Y-99063885D01*
X159914398Y-99063885D02*
X159842970Y-98992457D01*
X159842970Y-98992457D02*
X159700112Y-98921028D01*
X159700112Y-98921028D02*
X159414398Y-98921028D01*
X159414398Y-98921028D02*
X159271541Y-98992457D01*
X159271541Y-98992457D02*
X159200112Y-99063885D01*
X159200112Y-99063885D02*
X159128684Y-99206742D01*
X159128684Y-99206742D02*
X159128684Y-99563885D01*
X159128684Y-99563885D02*
X159200112Y-99706742D01*
X159200112Y-99706742D02*
X159271541Y-99778171D01*
X159271541Y-99778171D02*
X159414398Y-99849600D01*
X159414398Y-99849600D02*
X159700112Y-99849600D01*
X159700112Y-99849600D02*
X159842970Y-99778171D01*
X159842970Y-99778171D02*
X159914398Y-99706742D01*
X159914398Y-99706742D02*
X159985827Y-99563885D01*
X160914398Y-98921028D02*
X161057255Y-98921028D01*
X161057255Y-98921028D02*
X161200112Y-98992457D01*
X161200112Y-98992457D02*
X161271541Y-99063885D01*
X161271541Y-99063885D02*
X161342969Y-99206742D01*
X161342969Y-99206742D02*
X161414398Y-99492457D01*
X161414398Y-99492457D02*
X161414398Y-99849600D01*
X161414398Y-99849600D02*
X161342969Y-100135314D01*
X161342969Y-100135314D02*
X161271541Y-100278171D01*
X161271541Y-100278171D02*
X161200112Y-100349600D01*
X161200112Y-100349600D02*
X161057255Y-100421028D01*
X161057255Y-100421028D02*
X160914398Y-100421028D01*
X160914398Y-100421028D02*
X160771541Y-100349600D01*
X160771541Y-100349600D02*
X160700112Y-100278171D01*
X160700112Y-100278171D02*
X160628683Y-100135314D01*
X160628683Y-100135314D02*
X160557255Y-99849600D01*
X160557255Y-99849600D02*
X160557255Y-99492457D01*
X160557255Y-99492457D02*
X160628683Y-99206742D01*
X160628683Y-99206742D02*
X160700112Y-99063885D01*
X160700112Y-99063885D02*
X160771541Y-98992457D01*
X160771541Y-98992457D02*
X160914398Y-98921028D01*
X163200111Y-100421028D02*
X163200111Y-99421028D01*
X163200111Y-99563885D02*
X163271540Y-99492457D01*
X163271540Y-99492457D02*
X163414397Y-99421028D01*
X163414397Y-99421028D02*
X163628683Y-99421028D01*
X163628683Y-99421028D02*
X163771540Y-99492457D01*
X163771540Y-99492457D02*
X163842969Y-99635314D01*
X163842969Y-99635314D02*
X163842969Y-100421028D01*
X163842969Y-99635314D02*
X163914397Y-99492457D01*
X163914397Y-99492457D02*
X164057254Y-99421028D01*
X164057254Y-99421028D02*
X164271540Y-99421028D01*
X164271540Y-99421028D02*
X164414397Y-99492457D01*
X164414397Y-99492457D02*
X164485826Y-99635314D01*
X164485826Y-99635314D02*
X164485826Y-100421028D01*
X165200111Y-100421028D02*
X165200111Y-99421028D01*
X165200111Y-99563885D02*
X165271540Y-99492457D01*
X165271540Y-99492457D02*
X165414397Y-99421028D01*
X165414397Y-99421028D02*
X165628683Y-99421028D01*
X165628683Y-99421028D02*
X165771540Y-99492457D01*
X165771540Y-99492457D02*
X165842969Y-99635314D01*
X165842969Y-99635314D02*
X165842969Y-100421028D01*
X165842969Y-99635314D02*
X165914397Y-99492457D01*
X165914397Y-99492457D02*
X166057254Y-99421028D01*
X166057254Y-99421028D02*
X166271540Y-99421028D01*
X166271540Y-99421028D02*
X166414397Y-99492457D01*
X166414397Y-99492457D02*
X166485826Y-99635314D01*
X166485826Y-99635314D02*
X166485826Y-100421028D01*
D12*
X163327470Y-107631100D02*
X163327470Y-100940680D01*
X157358470Y-107631100D02*
X157358470Y-100940680D01*
X163327470Y-101527100D02*
X157358470Y-101527100D01*
X163327470Y-101527100D02*
X157358470Y-101527100D01*
X163327470Y-101527100D02*
X162200966Y-102113521D01*
X163327470Y-101527100D02*
X162200966Y-100940679D01*
X157358470Y-101527100D02*
X158484974Y-100940679D01*
X157358470Y-101527100D02*
X158484974Y-102113521D01*
D10*
D11*
X131165399Y-99429028D02*
X130451113Y-99429028D01*
X130451113Y-99429028D02*
X130379685Y-100143314D01*
X130379685Y-100143314D02*
X130451113Y-100071885D01*
X130451113Y-100071885D02*
X130593971Y-100000457D01*
X130593971Y-100000457D02*
X130951113Y-100000457D01*
X130951113Y-100000457D02*
X131093971Y-100071885D01*
X131093971Y-100071885D02*
X131165399Y-100143314D01*
X131165399Y-100143314D02*
X131236828Y-100286171D01*
X131236828Y-100286171D02*
X131236828Y-100643314D01*
X131236828Y-100643314D02*
X131165399Y-100786171D01*
X131165399Y-100786171D02*
X131093971Y-100857600D01*
X131093971Y-100857600D02*
X130951113Y-100929028D01*
X130951113Y-100929028D02*
X130593971Y-100929028D01*
X130593971Y-100929028D02*
X130451113Y-100857600D01*
X130451113Y-100857600D02*
X130379685Y-100786171D01*
X131951113Y-100857600D02*
X131951113Y-100929028D01*
X131951113Y-100929028D02*
X131879684Y-101071885D01*
X131879684Y-101071885D02*
X131808256Y-101143314D01*
X132665399Y-100929028D02*
X132951113Y-100929028D01*
X132951113Y-100929028D02*
X133093970Y-100857600D01*
X133093970Y-100857600D02*
X133165399Y-100786171D01*
X133165399Y-100786171D02*
X133308256Y-100571885D01*
X133308256Y-100571885D02*
X133379685Y-100286171D01*
X133379685Y-100286171D02*
X133379685Y-99714742D01*
X133379685Y-99714742D02*
X133308256Y-99571885D01*
X133308256Y-99571885D02*
X133236828Y-99500457D01*
X133236828Y-99500457D02*
X133093970Y-99429028D01*
X133093970Y-99429028D02*
X132808256Y-99429028D01*
X132808256Y-99429028D02*
X132665399Y-99500457D01*
X132665399Y-99500457D02*
X132593970Y-99571885D01*
X132593970Y-99571885D02*
X132522542Y-99714742D01*
X132522542Y-99714742D02*
X132522542Y-100071885D01*
X132522542Y-100071885D02*
X132593970Y-100214742D01*
X132593970Y-100214742D02*
X132665399Y-100286171D01*
X132665399Y-100286171D02*
X132808256Y-100357600D01*
X132808256Y-100357600D02*
X133093970Y-100357600D01*
X133093970Y-100357600D02*
X133236828Y-100286171D01*
X133236828Y-100286171D02*
X133308256Y-100214742D01*
X133308256Y-100214742D02*
X133379685Y-100071885D01*
X134665399Y-99429028D02*
X134379684Y-99429028D01*
X134379684Y-99429028D02*
X134236827Y-99500457D01*
X134236827Y-99500457D02*
X134165399Y-99571885D01*
X134165399Y-99571885D02*
X134022541Y-99786171D01*
X134022541Y-99786171D02*
X133951113Y-100071885D01*
X133951113Y-100071885D02*
X133951113Y-100643314D01*
X133951113Y-100643314D02*
X134022541Y-100786171D01*
X134022541Y-100786171D02*
X134093970Y-100857600D01*
X134093970Y-100857600D02*
X134236827Y-100929028D01*
X134236827Y-100929028D02*
X134522541Y-100929028D01*
X134522541Y-100929028D02*
X134665399Y-100857600D01*
X134665399Y-100857600D02*
X134736827Y-100786171D01*
X134736827Y-100786171D02*
X134808256Y-100643314D01*
X134808256Y-100643314D02*
X134808256Y-100286171D01*
X134808256Y-100286171D02*
X134736827Y-100143314D01*
X134736827Y-100143314D02*
X134665399Y-100071885D01*
X134665399Y-100071885D02*
X134522541Y-100000457D01*
X134522541Y-100000457D02*
X134236827Y-100000457D01*
X134236827Y-100000457D02*
X134093970Y-100071885D01*
X134093970Y-100071885D02*
X134022541Y-100143314D01*
X134022541Y-100143314D02*
X133951113Y-100286171D01*
X135522541Y-100929028D02*
X135808255Y-100929028D01*
X135808255Y-100929028D02*
X135951112Y-100857600D01*
X135951112Y-100857600D02*
X136022541Y-100786171D01*
X136022541Y-100786171D02*
X136165398Y-100571885D01*
X136165398Y-100571885D02*
X136236827Y-100286171D01*
X136236827Y-100286171D02*
X136236827Y-99714742D01*
X136236827Y-99714742D02*
X136165398Y-99571885D01*
X136165398Y-99571885D02*
X136093970Y-99500457D01*
X136093970Y-99500457D02*
X135951112Y-99429028D01*
X135951112Y-99429028D02*
X135665398Y-99429028D01*
X135665398Y-99429028D02*
X135522541Y-99500457D01*
X135522541Y-99500457D02*
X135451112Y-99571885D01*
X135451112Y-99571885D02*
X135379684Y-99714742D01*
X135379684Y-99714742D02*
X135379684Y-100071885D01*
X135379684Y-100071885D02*
X135451112Y-100214742D01*
X135451112Y-100214742D02*
X135522541Y-100286171D01*
X135522541Y-100286171D02*
X135665398Y-100357600D01*
X135665398Y-100357600D02*
X135951112Y-100357600D01*
X135951112Y-100357600D02*
X136093970Y-100286171D01*
X136093970Y-100286171D02*
X136165398Y-100214742D01*
X136165398Y-100214742D02*
X136236827Y-100071885D01*
X137165398Y-99429028D02*
X137308255Y-99429028D01*
X137308255Y-99429028D02*
X137451112Y-99500457D01*
X137451112Y-99500457D02*
X137522541Y-99571885D01*
X137522541Y-99571885D02*
X137593969Y-99714742D01*
X137593969Y-99714742D02*
X137665398Y-100000457D01*
X137665398Y-100000457D02*
X137665398Y-100357600D01*
X137665398Y-100357600D02*
X137593969Y-100643314D01*
X137593969Y-100643314D02*
X137522541Y-100786171D01*
X137522541Y-100786171D02*
X137451112Y-100857600D01*
X137451112Y-100857600D02*
X137308255Y-100929028D01*
X137308255Y-100929028D02*
X137165398Y-100929028D01*
X137165398Y-100929028D02*
X137022541Y-100857600D01*
X137022541Y-100857600D02*
X136951112Y-100786171D01*
X136951112Y-100786171D02*
X136879683Y-100643314D01*
X136879683Y-100643314D02*
X136808255Y-100357600D01*
X136808255Y-100357600D02*
X136808255Y-100000457D01*
X136808255Y-100000457D02*
X136879683Y-99714742D01*
X136879683Y-99714742D02*
X136951112Y-99571885D01*
X136951112Y-99571885D02*
X137022541Y-99500457D01*
X137022541Y-99500457D02*
X137165398Y-99429028D01*
X139451111Y-100929028D02*
X139451111Y-99929028D01*
X139451111Y-100071885D02*
X139522540Y-100000457D01*
X139522540Y-100000457D02*
X139665397Y-99929028D01*
X139665397Y-99929028D02*
X139879683Y-99929028D01*
X139879683Y-99929028D02*
X140022540Y-100000457D01*
X140022540Y-100000457D02*
X140093969Y-100143314D01*
X140093969Y-100143314D02*
X140093969Y-100929028D01*
X140093969Y-100143314D02*
X140165397Y-100000457D01*
X140165397Y-100000457D02*
X140308254Y-99929028D01*
X140308254Y-99929028D02*
X140522540Y-99929028D01*
X140522540Y-99929028D02*
X140665397Y-100000457D01*
X140665397Y-100000457D02*
X140736826Y-100143314D01*
X140736826Y-100143314D02*
X140736826Y-100929028D01*
X141451111Y-100929028D02*
X141451111Y-99929028D01*
X141451111Y-100071885D02*
X141522540Y-100000457D01*
X141522540Y-100000457D02*
X141665397Y-99929028D01*
X141665397Y-99929028D02*
X141879683Y-99929028D01*
X141879683Y-99929028D02*
X142022540Y-100000457D01*
X142022540Y-100000457D02*
X142093969Y-100143314D01*
X142093969Y-100143314D02*
X142093969Y-100929028D01*
X142093969Y-100143314D02*
X142165397Y-100000457D01*
X142165397Y-100000457D02*
X142308254Y-99929028D01*
X142308254Y-99929028D02*
X142522540Y-99929028D01*
X142522540Y-99929028D02*
X142665397Y-100000457D01*
X142665397Y-100000457D02*
X142736826Y-100143314D01*
X142736826Y-100143314D02*
X142736826Y-100929028D01*
D12*
X133609470Y-107631100D02*
X133609470Y-101448680D01*
X139578470Y-107631100D02*
X139578470Y-101448680D01*
X133609470Y-102035100D02*
X139578470Y-102035100D01*
X133609470Y-102035100D02*
X139578470Y-102035100D01*
X133609470Y-102035100D02*
X134735974Y-101448679D01*
X133609470Y-102035100D02*
X134735974Y-102621521D01*
X139578470Y-102035100D02*
X138451966Y-102621521D01*
X139578470Y-102035100D02*
X138451966Y-101448679D01*
D10*
D11*
X126077471Y-99929028D02*
X126077471Y-100929028D01*
X125720328Y-99357600D02*
X125363185Y-100429028D01*
X125363185Y-100429028D02*
X126291756Y-100429028D01*
X126934613Y-100857600D02*
X126934613Y-100929028D01*
X126934613Y-100929028D02*
X126863184Y-101071885D01*
X126863184Y-101071885D02*
X126791756Y-101143314D01*
X127863185Y-99429028D02*
X128006042Y-99429028D01*
X128006042Y-99429028D02*
X128148899Y-99500457D01*
X128148899Y-99500457D02*
X128220328Y-99571885D01*
X128220328Y-99571885D02*
X128291756Y-99714742D01*
X128291756Y-99714742D02*
X128363185Y-100000457D01*
X128363185Y-100000457D02*
X128363185Y-100357600D01*
X128363185Y-100357600D02*
X128291756Y-100643314D01*
X128291756Y-100643314D02*
X128220328Y-100786171D01*
X128220328Y-100786171D02*
X128148899Y-100857600D01*
X128148899Y-100857600D02*
X128006042Y-100929028D01*
X128006042Y-100929028D02*
X127863185Y-100929028D01*
X127863185Y-100929028D02*
X127720328Y-100857600D01*
X127720328Y-100857600D02*
X127648899Y-100786171D01*
X127648899Y-100786171D02*
X127577470Y-100643314D01*
X127577470Y-100643314D02*
X127506042Y-100357600D01*
X127506042Y-100357600D02*
X127506042Y-100000457D01*
X127506042Y-100000457D02*
X127577470Y-99714742D01*
X127577470Y-99714742D02*
X127648899Y-99571885D01*
X127648899Y-99571885D02*
X127720328Y-99500457D01*
X127720328Y-99500457D02*
X127863185Y-99429028D01*
X129648899Y-99429028D02*
X129363184Y-99429028D01*
X129363184Y-99429028D02*
X129220327Y-99500457D01*
X129220327Y-99500457D02*
X129148899Y-99571885D01*
X129148899Y-99571885D02*
X129006041Y-99786171D01*
X129006041Y-99786171D02*
X128934613Y-100071885D01*
X128934613Y-100071885D02*
X128934613Y-100643314D01*
X128934613Y-100643314D02*
X129006041Y-100786171D01*
X129006041Y-100786171D02*
X129077470Y-100857600D01*
X129077470Y-100857600D02*
X129220327Y-100929028D01*
X129220327Y-100929028D02*
X129506041Y-100929028D01*
X129506041Y-100929028D02*
X129648899Y-100857600D01*
X129648899Y-100857600D02*
X129720327Y-100786171D01*
X129720327Y-100786171D02*
X129791756Y-100643314D01*
X129791756Y-100643314D02*
X129791756Y-100286171D01*
X129791756Y-100286171D02*
X129720327Y-100143314D01*
X129720327Y-100143314D02*
X129648899Y-100071885D01*
X129648899Y-100071885D02*
X129506041Y-100000457D01*
X129506041Y-100000457D02*
X129220327Y-100000457D01*
X129220327Y-100000457D02*
X129077470Y-100071885D01*
X129077470Y-100071885D02*
X129006041Y-100143314D01*
X129006041Y-100143314D02*
X128934613Y-100286171D01*
X131077470Y-99929028D02*
X131077470Y-100929028D01*
X130720327Y-99357600D02*
X130363184Y-100429028D01*
X130363184Y-100429028D02*
X131291755Y-100429028D01*
X132148898Y-99429028D02*
X132291755Y-99429028D01*
X132291755Y-99429028D02*
X132434612Y-99500457D01*
X132434612Y-99500457D02*
X132506041Y-99571885D01*
X132506041Y-99571885D02*
X132577469Y-99714742D01*
X132577469Y-99714742D02*
X132648898Y-100000457D01*
X132648898Y-100000457D02*
X132648898Y-100357600D01*
X132648898Y-100357600D02*
X132577469Y-100643314D01*
X132577469Y-100643314D02*
X132506041Y-100786171D01*
X132506041Y-100786171D02*
X132434612Y-100857600D01*
X132434612Y-100857600D02*
X132291755Y-100929028D01*
X132291755Y-100929028D02*
X132148898Y-100929028D01*
X132148898Y-100929028D02*
X132006041Y-100857600D01*
X132006041Y-100857600D02*
X131934612Y-100786171D01*
X131934612Y-100786171D02*
X131863183Y-100643314D01*
X131863183Y-100643314D02*
X131791755Y-100357600D01*
X131791755Y-100357600D02*
X131791755Y-100000457D01*
X131791755Y-100000457D02*
X131863183Y-99714742D01*
X131863183Y-99714742D02*
X131934612Y-99571885D01*
X131934612Y-99571885D02*
X132006041Y-99500457D01*
X132006041Y-99500457D02*
X132148898Y-99429028D01*
X134434611Y-100929028D02*
X134434611Y-99929028D01*
X134434611Y-100071885D02*
X134506040Y-100000457D01*
X134506040Y-100000457D02*
X134648897Y-99929028D01*
X134648897Y-99929028D02*
X134863183Y-99929028D01*
X134863183Y-99929028D02*
X135006040Y-100000457D01*
X135006040Y-100000457D02*
X135077469Y-100143314D01*
X135077469Y-100143314D02*
X135077469Y-100929028D01*
X135077469Y-100143314D02*
X135148897Y-100000457D01*
X135148897Y-100000457D02*
X135291754Y-99929028D01*
X135291754Y-99929028D02*
X135506040Y-99929028D01*
X135506040Y-99929028D02*
X135648897Y-100000457D01*
X135648897Y-100000457D02*
X135720326Y-100143314D01*
X135720326Y-100143314D02*
X135720326Y-100929028D01*
X136434611Y-100929028D02*
X136434611Y-99929028D01*
X136434611Y-100071885D02*
X136506040Y-100000457D01*
X136506040Y-100000457D02*
X136648897Y-99929028D01*
X136648897Y-99929028D02*
X136863183Y-99929028D01*
X136863183Y-99929028D02*
X137006040Y-100000457D01*
X137006040Y-100000457D02*
X137077469Y-100143314D01*
X137077469Y-100143314D02*
X137077469Y-100929028D01*
X137077469Y-100143314D02*
X137148897Y-100000457D01*
X137148897Y-100000457D02*
X137291754Y-99929028D01*
X137291754Y-99929028D02*
X137506040Y-99929028D01*
X137506040Y-99929028D02*
X137648897Y-100000457D01*
X137648897Y-100000457D02*
X137720326Y-100143314D01*
X137720326Y-100143314D02*
X137720326Y-100929028D01*
D12*
X129545470Y-107631100D02*
X129545470Y-101448680D01*
X133609470Y-107631100D02*
X133609470Y-101448680D01*
X129545470Y-102035100D02*
X133609470Y-102035100D01*
X129545470Y-102035100D02*
X133609470Y-102035100D01*
X129545470Y-102035100D02*
X130671974Y-101448679D01*
X129545470Y-102035100D02*
X130671974Y-102621521D01*
X133609470Y-102035100D02*
X132482966Y-102621521D01*
X133609470Y-102035100D02*
X132482966Y-101448679D01*
D10*
D11*
X171770398Y-110265599D02*
X171770398Y-110551313D01*
X171770398Y-110551313D02*
X171841827Y-110694170D01*
X171841827Y-110694170D02*
X171913255Y-110765599D01*
X171913255Y-110765599D02*
X172127541Y-110908456D01*
X172127541Y-110908456D02*
X172413255Y-110979884D01*
X172413255Y-110979884D02*
X172984684Y-110979884D01*
X172984684Y-110979884D02*
X173127541Y-110908456D01*
X173127541Y-110908456D02*
X173198970Y-110837027D01*
X173198970Y-110837027D02*
X173270398Y-110694170D01*
X173270398Y-110694170D02*
X173270398Y-110408456D01*
X173270398Y-110408456D02*
X173198970Y-110265599D01*
X173198970Y-110265599D02*
X173127541Y-110194170D01*
X173127541Y-110194170D02*
X172984684Y-110122741D01*
X172984684Y-110122741D02*
X172627541Y-110122741D01*
X172627541Y-110122741D02*
X172484684Y-110194170D01*
X172484684Y-110194170D02*
X172413255Y-110265599D01*
X172413255Y-110265599D02*
X172341827Y-110408456D01*
X172341827Y-110408456D02*
X172341827Y-110694170D01*
X172341827Y-110694170D02*
X172413255Y-110837027D01*
X172413255Y-110837027D02*
X172484684Y-110908456D01*
X172484684Y-110908456D02*
X172627541Y-110979884D01*
X173198970Y-109408456D02*
X173270398Y-109408456D01*
X173270398Y-109408456D02*
X173413255Y-109479885D01*
X173413255Y-109479885D02*
X173484684Y-109551313D01*
X171770398Y-108908456D02*
X171770398Y-107908456D01*
X171770398Y-107908456D02*
X173270398Y-108551313D01*
X171770398Y-107479885D02*
X171770398Y-106551313D01*
X171770398Y-106551313D02*
X172341827Y-107051313D01*
X172341827Y-107051313D02*
X172341827Y-106837028D01*
X172341827Y-106837028D02*
X172413255Y-106694171D01*
X172413255Y-106694171D02*
X172484684Y-106622742D01*
X172484684Y-106622742D02*
X172627541Y-106551313D01*
X172627541Y-106551313D02*
X172984684Y-106551313D01*
X172984684Y-106551313D02*
X173127541Y-106622742D01*
X173127541Y-106622742D02*
X173198970Y-106694171D01*
X173198970Y-106694171D02*
X173270398Y-106837028D01*
X173270398Y-106837028D02*
X173270398Y-107265599D01*
X173270398Y-107265599D02*
X173198970Y-107408456D01*
X173198970Y-107408456D02*
X173127541Y-107479885D01*
X173270398Y-105122742D02*
X173270398Y-105979885D01*
X173270398Y-105551314D02*
X171770398Y-105551314D01*
X171770398Y-105551314D02*
X171984684Y-105694171D01*
X171984684Y-105694171D02*
X172127541Y-105837028D01*
X172127541Y-105837028D02*
X172198970Y-105979885D01*
X171770398Y-104194171D02*
X171770398Y-104051314D01*
X171770398Y-104051314D02*
X171841827Y-103908457D01*
X171841827Y-103908457D02*
X171913255Y-103837029D01*
X171913255Y-103837029D02*
X172056112Y-103765600D01*
X172056112Y-103765600D02*
X172341827Y-103694171D01*
X172341827Y-103694171D02*
X172698970Y-103694171D01*
X172698970Y-103694171D02*
X172984684Y-103765600D01*
X172984684Y-103765600D02*
X173127541Y-103837029D01*
X173127541Y-103837029D02*
X173198970Y-103908457D01*
X173198970Y-103908457D02*
X173270398Y-104051314D01*
X173270398Y-104051314D02*
X173270398Y-104194171D01*
X173270398Y-104194171D02*
X173198970Y-104337029D01*
X173198970Y-104337029D02*
X173127541Y-104408457D01*
X173127541Y-104408457D02*
X172984684Y-104479886D01*
X172984684Y-104479886D02*
X172698970Y-104551314D01*
X172698970Y-104551314D02*
X172341827Y-104551314D01*
X172341827Y-104551314D02*
X172056112Y-104479886D01*
X172056112Y-104479886D02*
X171913255Y-104408457D01*
X171913255Y-104408457D02*
X171841827Y-104337029D01*
X171841827Y-104337029D02*
X171770398Y-104194171D01*
X173270398Y-101908458D02*
X172270398Y-101908458D01*
X172413255Y-101908458D02*
X172341827Y-101837029D01*
X172341827Y-101837029D02*
X172270398Y-101694172D01*
X172270398Y-101694172D02*
X172270398Y-101479886D01*
X172270398Y-101479886D02*
X172341827Y-101337029D01*
X172341827Y-101337029D02*
X172484684Y-101265601D01*
X172484684Y-101265601D02*
X173270398Y-101265601D01*
X172484684Y-101265601D02*
X172341827Y-101194172D01*
X172341827Y-101194172D02*
X172270398Y-101051315D01*
X172270398Y-101051315D02*
X172270398Y-100837029D01*
X172270398Y-100837029D02*
X172341827Y-100694172D01*
X172341827Y-100694172D02*
X172484684Y-100622743D01*
X172484684Y-100622743D02*
X173270398Y-100622743D01*
X173270398Y-99908458D02*
X172270398Y-99908458D01*
X172413255Y-99908458D02*
X172341827Y-99837029D01*
X172341827Y-99837029D02*
X172270398Y-99694172D01*
X172270398Y-99694172D02*
X172270398Y-99479886D01*
X172270398Y-99479886D02*
X172341827Y-99337029D01*
X172341827Y-99337029D02*
X172484684Y-99265601D01*
X172484684Y-99265601D02*
X173270398Y-99265601D01*
X172484684Y-99265601D02*
X172341827Y-99194172D01*
X172341827Y-99194172D02*
X172270398Y-99051315D01*
X172270398Y-99051315D02*
X172270398Y-98837029D01*
X172270398Y-98837029D02*
X172341827Y-98694172D01*
X172341827Y-98694172D02*
X172484684Y-98622743D01*
X172484684Y-98622743D02*
X173270398Y-98622743D01*
D12*
X157858470Y-108131100D02*
X174962890Y-108131100D01*
X157858470Y-101400100D02*
X174962890Y-101400100D01*
X174376470Y-108131100D02*
X174376470Y-101400100D01*
X174376470Y-108131100D02*
X174376470Y-101400100D01*
X174376470Y-108131100D02*
X173790049Y-107004596D01*
X174376470Y-108131100D02*
X174962891Y-107004596D01*
X174376470Y-101400100D02*
X174962891Y-102526604D01*
X174376470Y-101400100D02*
X173790049Y-102526604D01*
D10*
D11*
X159922971Y-99548028D02*
X159922971Y-100548028D01*
X159565828Y-98976600D02*
X159208685Y-100048028D01*
X159208685Y-100048028D02*
X160137256Y-100048028D01*
X160780113Y-100476600D02*
X160780113Y-100548028D01*
X160780113Y-100548028D02*
X160708684Y-100690885D01*
X160708684Y-100690885D02*
X160637256Y-100762314D01*
X162208685Y-100548028D02*
X161351542Y-100548028D01*
X161780113Y-100548028D02*
X161780113Y-99048028D01*
X161780113Y-99048028D02*
X161637256Y-99262314D01*
X161637256Y-99262314D02*
X161494399Y-99405171D01*
X161494399Y-99405171D02*
X161351542Y-99476600D01*
X162922970Y-100548028D02*
X163208684Y-100548028D01*
X163208684Y-100548028D02*
X163351541Y-100476600D01*
X163351541Y-100476600D02*
X163422970Y-100405171D01*
X163422970Y-100405171D02*
X163565827Y-100190885D01*
X163565827Y-100190885D02*
X163637256Y-99905171D01*
X163637256Y-99905171D02*
X163637256Y-99333742D01*
X163637256Y-99333742D02*
X163565827Y-99190885D01*
X163565827Y-99190885D02*
X163494399Y-99119457D01*
X163494399Y-99119457D02*
X163351541Y-99048028D01*
X163351541Y-99048028D02*
X163065827Y-99048028D01*
X163065827Y-99048028D02*
X162922970Y-99119457D01*
X162922970Y-99119457D02*
X162851541Y-99190885D01*
X162851541Y-99190885D02*
X162780113Y-99333742D01*
X162780113Y-99333742D02*
X162780113Y-99690885D01*
X162780113Y-99690885D02*
X162851541Y-99833742D01*
X162851541Y-99833742D02*
X162922970Y-99905171D01*
X162922970Y-99905171D02*
X163065827Y-99976600D01*
X163065827Y-99976600D02*
X163351541Y-99976600D01*
X163351541Y-99976600D02*
X163494399Y-99905171D01*
X163494399Y-99905171D02*
X163565827Y-99833742D01*
X163565827Y-99833742D02*
X163637256Y-99690885D01*
X165065827Y-100548028D02*
X164208684Y-100548028D01*
X164637255Y-100548028D02*
X164637255Y-99048028D01*
X164637255Y-99048028D02*
X164494398Y-99262314D01*
X164494398Y-99262314D02*
X164351541Y-99405171D01*
X164351541Y-99405171D02*
X164208684Y-99476600D01*
X165994398Y-99048028D02*
X166137255Y-99048028D01*
X166137255Y-99048028D02*
X166280112Y-99119457D01*
X166280112Y-99119457D02*
X166351541Y-99190885D01*
X166351541Y-99190885D02*
X166422969Y-99333742D01*
X166422969Y-99333742D02*
X166494398Y-99619457D01*
X166494398Y-99619457D02*
X166494398Y-99976600D01*
X166494398Y-99976600D02*
X166422969Y-100262314D01*
X166422969Y-100262314D02*
X166351541Y-100405171D01*
X166351541Y-100405171D02*
X166280112Y-100476600D01*
X166280112Y-100476600D02*
X166137255Y-100548028D01*
X166137255Y-100548028D02*
X165994398Y-100548028D01*
X165994398Y-100548028D02*
X165851541Y-100476600D01*
X165851541Y-100476600D02*
X165780112Y-100405171D01*
X165780112Y-100405171D02*
X165708683Y-100262314D01*
X165708683Y-100262314D02*
X165637255Y-99976600D01*
X165637255Y-99976600D02*
X165637255Y-99619457D01*
X165637255Y-99619457D02*
X165708683Y-99333742D01*
X165708683Y-99333742D02*
X165780112Y-99190885D01*
X165780112Y-99190885D02*
X165851541Y-99119457D01*
X165851541Y-99119457D02*
X165994398Y-99048028D01*
X168280111Y-100548028D02*
X168280111Y-99548028D01*
X168280111Y-99690885D02*
X168351540Y-99619457D01*
X168351540Y-99619457D02*
X168494397Y-99548028D01*
X168494397Y-99548028D02*
X168708683Y-99548028D01*
X168708683Y-99548028D02*
X168851540Y-99619457D01*
X168851540Y-99619457D02*
X168922969Y-99762314D01*
X168922969Y-99762314D02*
X168922969Y-100548028D01*
X168922969Y-99762314D02*
X168994397Y-99619457D01*
X168994397Y-99619457D02*
X169137254Y-99548028D01*
X169137254Y-99548028D02*
X169351540Y-99548028D01*
X169351540Y-99548028D02*
X169494397Y-99619457D01*
X169494397Y-99619457D02*
X169565826Y-99762314D01*
X169565826Y-99762314D02*
X169565826Y-100548028D01*
X170280111Y-100548028D02*
X170280111Y-99548028D01*
X170280111Y-99690885D02*
X170351540Y-99619457D01*
X170351540Y-99619457D02*
X170494397Y-99548028D01*
X170494397Y-99548028D02*
X170708683Y-99548028D01*
X170708683Y-99548028D02*
X170851540Y-99619457D01*
X170851540Y-99619457D02*
X170922969Y-99762314D01*
X170922969Y-99762314D02*
X170922969Y-100548028D01*
X170922969Y-99762314D02*
X170994397Y-99619457D01*
X170994397Y-99619457D02*
X171137254Y-99548028D01*
X171137254Y-99548028D02*
X171351540Y-99548028D01*
X171351540Y-99548028D02*
X171494397Y-99619457D01*
X171494397Y-99619457D02*
X171565826Y-99762314D01*
X171565826Y-99762314D02*
X171565826Y-100548028D01*
D12*
X167518470Y-107631100D02*
X167518470Y-101067680D01*
X163327470Y-107631100D02*
X163327470Y-101067680D01*
X167518470Y-101654100D02*
X163327470Y-101654100D01*
X167518470Y-101654100D02*
X163327470Y-101654100D01*
X167518470Y-101654100D02*
X166391966Y-102240521D01*
X167518470Y-101654100D02*
X166391966Y-101067679D01*
X163327470Y-101654100D02*
X164453974Y-101067679D01*
X163327470Y-101654100D02*
X164453974Y-102240521D01*
D10*
D11*
X118303398Y-110265599D02*
X118303398Y-110551313D01*
X118303398Y-110551313D02*
X118374827Y-110694170D01*
X118374827Y-110694170D02*
X118446255Y-110765599D01*
X118446255Y-110765599D02*
X118660541Y-110908456D01*
X118660541Y-110908456D02*
X118946255Y-110979884D01*
X118946255Y-110979884D02*
X119517684Y-110979884D01*
X119517684Y-110979884D02*
X119660541Y-110908456D01*
X119660541Y-110908456D02*
X119731970Y-110837027D01*
X119731970Y-110837027D02*
X119803398Y-110694170D01*
X119803398Y-110694170D02*
X119803398Y-110408456D01*
X119803398Y-110408456D02*
X119731970Y-110265599D01*
X119731970Y-110265599D02*
X119660541Y-110194170D01*
X119660541Y-110194170D02*
X119517684Y-110122741D01*
X119517684Y-110122741D02*
X119160541Y-110122741D01*
X119160541Y-110122741D02*
X119017684Y-110194170D01*
X119017684Y-110194170D02*
X118946255Y-110265599D01*
X118946255Y-110265599D02*
X118874827Y-110408456D01*
X118874827Y-110408456D02*
X118874827Y-110694170D01*
X118874827Y-110694170D02*
X118946255Y-110837027D01*
X118946255Y-110837027D02*
X119017684Y-110908456D01*
X119017684Y-110908456D02*
X119160541Y-110979884D01*
X119731970Y-109408456D02*
X119803398Y-109408456D01*
X119803398Y-109408456D02*
X119946255Y-109479885D01*
X119946255Y-109479885D02*
X120017684Y-109551313D01*
X118303398Y-108908456D02*
X118303398Y-107908456D01*
X118303398Y-107908456D02*
X119803398Y-108551313D01*
X118303398Y-107479885D02*
X118303398Y-106551313D01*
X118303398Y-106551313D02*
X118874827Y-107051313D01*
X118874827Y-107051313D02*
X118874827Y-106837028D01*
X118874827Y-106837028D02*
X118946255Y-106694171D01*
X118946255Y-106694171D02*
X119017684Y-106622742D01*
X119017684Y-106622742D02*
X119160541Y-106551313D01*
X119160541Y-106551313D02*
X119517684Y-106551313D01*
X119517684Y-106551313D02*
X119660541Y-106622742D01*
X119660541Y-106622742D02*
X119731970Y-106694171D01*
X119731970Y-106694171D02*
X119803398Y-106837028D01*
X119803398Y-106837028D02*
X119803398Y-107265599D01*
X119803398Y-107265599D02*
X119731970Y-107408456D01*
X119731970Y-107408456D02*
X119660541Y-107479885D01*
X119803398Y-105122742D02*
X119803398Y-105979885D01*
X119803398Y-105551314D02*
X118303398Y-105551314D01*
X118303398Y-105551314D02*
X118517684Y-105694171D01*
X118517684Y-105694171D02*
X118660541Y-105837028D01*
X118660541Y-105837028D02*
X118731970Y-105979885D01*
X118303398Y-104194171D02*
X118303398Y-104051314D01*
X118303398Y-104051314D02*
X118374827Y-103908457D01*
X118374827Y-103908457D02*
X118446255Y-103837029D01*
X118446255Y-103837029D02*
X118589112Y-103765600D01*
X118589112Y-103765600D02*
X118874827Y-103694171D01*
X118874827Y-103694171D02*
X119231970Y-103694171D01*
X119231970Y-103694171D02*
X119517684Y-103765600D01*
X119517684Y-103765600D02*
X119660541Y-103837029D01*
X119660541Y-103837029D02*
X119731970Y-103908457D01*
X119731970Y-103908457D02*
X119803398Y-104051314D01*
X119803398Y-104051314D02*
X119803398Y-104194171D01*
X119803398Y-104194171D02*
X119731970Y-104337029D01*
X119731970Y-104337029D02*
X119660541Y-104408457D01*
X119660541Y-104408457D02*
X119517684Y-104479886D01*
X119517684Y-104479886D02*
X119231970Y-104551314D01*
X119231970Y-104551314D02*
X118874827Y-104551314D01*
X118874827Y-104551314D02*
X118589112Y-104479886D01*
X118589112Y-104479886D02*
X118446255Y-104408457D01*
X118446255Y-104408457D02*
X118374827Y-104337029D01*
X118374827Y-104337029D02*
X118303398Y-104194171D01*
X119803398Y-101908458D02*
X118803398Y-101908458D01*
X118946255Y-101908458D02*
X118874827Y-101837029D01*
X118874827Y-101837029D02*
X118803398Y-101694172D01*
X118803398Y-101694172D02*
X118803398Y-101479886D01*
X118803398Y-101479886D02*
X118874827Y-101337029D01*
X118874827Y-101337029D02*
X119017684Y-101265601D01*
X119017684Y-101265601D02*
X119803398Y-101265601D01*
X119017684Y-101265601D02*
X118874827Y-101194172D01*
X118874827Y-101194172D02*
X118803398Y-101051315D01*
X118803398Y-101051315D02*
X118803398Y-100837029D01*
X118803398Y-100837029D02*
X118874827Y-100694172D01*
X118874827Y-100694172D02*
X119017684Y-100622743D01*
X119017684Y-100622743D02*
X119803398Y-100622743D01*
X119803398Y-99908458D02*
X118803398Y-99908458D01*
X118946255Y-99908458D02*
X118874827Y-99837029D01*
X118874827Y-99837029D02*
X118803398Y-99694172D01*
X118803398Y-99694172D02*
X118803398Y-99479886D01*
X118803398Y-99479886D02*
X118874827Y-99337029D01*
X118874827Y-99337029D02*
X119017684Y-99265601D01*
X119017684Y-99265601D02*
X119803398Y-99265601D01*
X119017684Y-99265601D02*
X118874827Y-99194172D01*
X118874827Y-99194172D02*
X118803398Y-99051315D01*
X118803398Y-99051315D02*
X118803398Y-98837029D01*
X118803398Y-98837029D02*
X118874827Y-98694172D01*
X118874827Y-98694172D02*
X119017684Y-98622743D01*
X119017684Y-98622743D02*
X119803398Y-98622743D01*
D12*
X139078470Y-108131100D02*
X120323050Y-108131100D01*
X139078470Y-101400100D02*
X120323050Y-101400100D01*
X120909470Y-108131100D02*
X120909470Y-101400100D01*
X120909470Y-108131100D02*
X120909470Y-101400100D01*
X120909470Y-108131100D02*
X120323049Y-107004596D01*
X120909470Y-108131100D02*
X121495891Y-107004596D01*
X120909470Y-101400100D02*
X121495891Y-102526604D01*
X120909470Y-101400100D02*
X120323049Y-102526604D01*
D13*
%TO.N,*%
X166248470Y-104956100D03*
X130688470Y-104956100D03*
%TD*%
%TA.AperFunction,NonConductor*%
G36*
X131902195Y-93529635D02*
G01*
X131938263Y-93565067D01*
X131953304Y-93587581D01*
X131960679Y-93600163D01*
X131968617Y-93615740D01*
X131978011Y-93642839D01*
X131979994Y-93644201D01*
X131994336Y-93666215D01*
X132003234Y-93683677D01*
X132012999Y-93693441D01*
X132019596Y-93705522D01*
X132025427Y-93711128D01*
X132027742Y-93712810D01*
X132034659Y-93720004D01*
X132040578Y-93725694D01*
X132061406Y-93741843D01*
X132071017Y-93751453D01*
X132071019Y-93751454D01*
X132088645Y-93760434D01*
X132103255Y-93774230D01*
X132106865Y-93774948D01*
X132138991Y-93786082D01*
X132154410Y-93793937D01*
X132166146Y-93800814D01*
X132177696Y-93798664D01*
X132203427Y-93804089D01*
X132203501Y-93804113D01*
X132204436Y-93804112D01*
X132223852Y-93805636D01*
X132234679Y-93807350D01*
X132236598Y-93807654D01*
X132244740Y-93809950D01*
X164705322Y-93809950D01*
X164721434Y-93814681D01*
X164741648Y-93811478D01*
X164761057Y-93809950D01*
X164776431Y-93809950D01*
X164781954Y-93806934D01*
X164793939Y-93805645D01*
X164798729Y-93804089D01*
X164798750Y-93804081D01*
X164832448Y-93803117D01*
X164834893Y-93801484D01*
X164847475Y-93794108D01*
X164847811Y-93793937D01*
X164863337Y-93786023D01*
X164890445Y-93776621D01*
X164891802Y-93774645D01*
X164913823Y-93760296D01*
X164931171Y-93751456D01*
X164940470Y-93742155D01*
X164952493Y-93735588D01*
X164958607Y-93729231D01*
X164960284Y-93726923D01*
X164967485Y-93719998D01*
X164973894Y-93713333D01*
X164989795Y-93692825D01*
X164998944Y-93683676D01*
X165007863Y-93666168D01*
X165021667Y-93651550D01*
X165022394Y-93647901D01*
X165033523Y-93615804D01*
X165041519Y-93600110D01*
X165048900Y-93587520D01*
X165063912Y-93565055D01*
X165117526Y-93520252D01*
X165167011Y-93509950D01*
X165751100Y-93509950D01*
X165874778Y-93509950D01*
X165880504Y-93510082D01*
X165923837Y-93512085D01*
X165995559Y-93515609D01*
X166000852Y-93515984D01*
X166242828Y-93538409D01*
X166248460Y-93539062D01*
X166314418Y-93548263D01*
X166368824Y-93556334D01*
X166373237Y-93557074D01*
X166606654Y-93600708D01*
X166612177Y-93601873D01*
X166690448Y-93620282D01*
X166734586Y-93631339D01*
X166738229Y-93632313D01*
X166942543Y-93690447D01*
X166963152Y-93696311D01*
X166968595Y-93697996D01*
X167055604Y-93727158D01*
X167057644Y-93727865D01*
X167088596Y-93738940D01*
X167091540Y-93740037D01*
X167309337Y-93824414D01*
X167314608Y-93826598D01*
X167409105Y-93868323D01*
X167412027Y-93869658D01*
X167425554Y-93876056D01*
X167427755Y-93877125D01*
X167508363Y-93917263D01*
X167642192Y-93983903D01*
X167647259Y-93986574D01*
X167743127Y-94039972D01*
X167748042Y-94042860D01*
X167951323Y-94168727D01*
X167958915Y-94173428D01*
X167963713Y-94176555D01*
X168054166Y-94238516D01*
X168058807Y-94241855D01*
X168144363Y-94306464D01*
X168256801Y-94391374D01*
X168261292Y-94394931D01*
X168345566Y-94464912D01*
X168349887Y-94468672D01*
X168533324Y-94635898D01*
X168537466Y-94639854D01*
X168614838Y-94717226D01*
X168618794Y-94721369D01*
X168786055Y-94904847D01*
X168789816Y-94909168D01*
X168859708Y-94993336D01*
X168863246Y-94997803D01*
X169010884Y-95193309D01*
X169012924Y-95196010D01*
X169016268Y-95200658D01*
X169078040Y-95290834D01*
X169081159Y-95295620D01*
X169211933Y-95506829D01*
X169214835Y-95511767D01*
X169267993Y-95607203D01*
X169270664Y-95612271D01*
X169377859Y-95827549D01*
X169378957Y-95829809D01*
X169385055Y-95842704D01*
X169386391Y-95845628D01*
X169427959Y-95939769D01*
X169430151Y-95945062D01*
X169514878Y-96163766D01*
X169516005Y-96166789D01*
X169526763Y-96196858D01*
X169527581Y-96199221D01*
X169556560Y-96285679D01*
X169558256Y-96291154D01*
X169622535Y-96517078D01*
X169623552Y-96520880D01*
X169634411Y-96564230D01*
X169652709Y-96642028D01*
X169653879Y-96647576D01*
X169697715Y-96882082D01*
X169698484Y-96886673D01*
X169706430Y-96940242D01*
X169715554Y-97005652D01*
X169716213Y-97011333D01*
X169738745Y-97254496D01*
X169739125Y-97259852D01*
X169742607Y-97330721D01*
X169744588Y-97373561D01*
X169744720Y-97379288D01*
X169744720Y-97554732D01*
X169744750Y-97554991D01*
X169744750Y-99192339D01*
X169725065Y-99259378D01*
X169672261Y-99305133D01*
X169667627Y-99306530D01*
X169648748Y-99316147D01*
X169621742Y-99325181D01*
X169620574Y-99326844D01*
X169616205Y-99330168D01*
X169612319Y-99332991D01*
X169595712Y-99343165D01*
X169593556Y-99344263D01*
X169579949Y-99346815D01*
X169571016Y-99355747D01*
X169571017Y-99355747D01*
X169557286Y-99369475D01*
X169539766Y-99382919D01*
X169536418Y-99387843D01*
X169535549Y-99389040D01*
X169522884Y-99403874D01*
X169503234Y-99423523D01*
X169490606Y-99448302D01*
X169480457Y-99464864D01*
X169480014Y-99465473D01*
X169479791Y-99466161D01*
X169472345Y-99484140D01*
X169459715Y-99508928D01*
X169455360Y-99536416D01*
X169450824Y-99555314D01*
X169450600Y-99556003D01*
X169450600Y-99556719D01*
X169449073Y-99576119D01*
X169444720Y-99603599D01*
X169449073Y-99631080D01*
X169450600Y-99650480D01*
X169450600Y-99651196D01*
X169450823Y-99651883D01*
X169455360Y-99670785D01*
X169459715Y-99698272D01*
X169472342Y-99723053D01*
X169479791Y-99741038D01*
X169479942Y-99741502D01*
X169480015Y-99741726D01*
X169480453Y-99742328D01*
X169490609Y-99758901D01*
X169503235Y-99783678D01*
X169522886Y-99803327D01*
X169535563Y-99818179D01*
X169535965Y-99818733D01*
X169536442Y-99819390D01*
X169537589Y-99822612D01*
X169557294Y-99837732D01*
X169577932Y-99858370D01*
X169585671Y-99859264D01*
X169593608Y-99862961D01*
X169595516Y-99863934D01*
X169595742Y-99864049D01*
X169612318Y-99874207D01*
X169612975Y-99874685D01*
X169612976Y-99874685D01*
X169616202Y-99877029D01*
X169619459Y-99881254D01*
X169648748Y-99891053D01*
X169673928Y-99903881D01*
X169672073Y-99907521D01*
X169703266Y-99922302D01*
X169740208Y-99981607D01*
X169744750Y-100014861D01*
X169744750Y-102242339D01*
X169725065Y-102309378D01*
X169672261Y-102355133D01*
X169667627Y-102356530D01*
X169648748Y-102366147D01*
X169621742Y-102375181D01*
X169620574Y-102376844D01*
X169616205Y-102380168D01*
X169612319Y-102382991D01*
X169595712Y-102393165D01*
X169593556Y-102394263D01*
X169579949Y-102396815D01*
X169571016Y-102405747D01*
X169571017Y-102405747D01*
X169557286Y-102419475D01*
X169539766Y-102432919D01*
X169536418Y-102437843D01*
X169535549Y-102439040D01*
X169522884Y-102453874D01*
X169503234Y-102473523D01*
X169490606Y-102498302D01*
X169480457Y-102514864D01*
X169480014Y-102515473D01*
X169479791Y-102516161D01*
X169472345Y-102534140D01*
X169459715Y-102558928D01*
X169455360Y-102586416D01*
X169450824Y-102605314D01*
X169450600Y-102606003D01*
X169450600Y-102606719D01*
X169449073Y-102626119D01*
X169444720Y-102653599D01*
X169449073Y-102681080D01*
X169450600Y-102700480D01*
X169450600Y-102701196D01*
X169450823Y-102701883D01*
X169455360Y-102720785D01*
X169459715Y-102748272D01*
X169472342Y-102773053D01*
X169479791Y-102791038D01*
X169479942Y-102791502D01*
X169480015Y-102791726D01*
X169480453Y-102792328D01*
X169490609Y-102808901D01*
X169503235Y-102833678D01*
X169522886Y-102853327D01*
X169535563Y-102868179D01*
X169535965Y-102868733D01*
X169536442Y-102869390D01*
X169537589Y-102872612D01*
X169557294Y-102887732D01*
X169577932Y-102908370D01*
X169585671Y-102909264D01*
X169593608Y-102912961D01*
X169595516Y-102913934D01*
X169595742Y-102914049D01*
X169612318Y-102924207D01*
X169612975Y-102924685D01*
X169612976Y-102924685D01*
X169616202Y-102927029D01*
X169619459Y-102931254D01*
X169648748Y-102941053D01*
X169673928Y-102953881D01*
X169672073Y-102957521D01*
X169703266Y-102972302D01*
X169740208Y-103031607D01*
X169744750Y-103064861D01*
X169744750Y-106942339D01*
X169725065Y-107009378D01*
X169672261Y-107055133D01*
X169667627Y-107056530D01*
X169648748Y-107066147D01*
X169621742Y-107075181D01*
X169620574Y-107076844D01*
X169616205Y-107080168D01*
X169612319Y-107082991D01*
X169595712Y-107093165D01*
X169593556Y-107094263D01*
X169579949Y-107096815D01*
X169571016Y-107105747D01*
X169571017Y-107105747D01*
X169557286Y-107119475D01*
X169539766Y-107132919D01*
X169536418Y-107137843D01*
X169535549Y-107139040D01*
X169522884Y-107153874D01*
X169503234Y-107173523D01*
X169490606Y-107198302D01*
X169480457Y-107214864D01*
X169480014Y-107215473D01*
X169479791Y-107216161D01*
X169472345Y-107234140D01*
X169459715Y-107258928D01*
X169455360Y-107286416D01*
X169450824Y-107305314D01*
X169450600Y-107306003D01*
X169450600Y-107306719D01*
X169449073Y-107326119D01*
X169444720Y-107353599D01*
X169449073Y-107381080D01*
X169450600Y-107400480D01*
X169450600Y-107401196D01*
X169450823Y-107401883D01*
X169455360Y-107420785D01*
X169459715Y-107448272D01*
X169472342Y-107473053D01*
X169479791Y-107491038D01*
X169479942Y-107491502D01*
X169480015Y-107491726D01*
X169480453Y-107492328D01*
X169490609Y-107508901D01*
X169503235Y-107533678D01*
X169522886Y-107553327D01*
X169535563Y-107568179D01*
X169535965Y-107568733D01*
X169536442Y-107569390D01*
X169537589Y-107572612D01*
X169557294Y-107587732D01*
X169577932Y-107608370D01*
X169585671Y-107609264D01*
X169593608Y-107612961D01*
X169595516Y-107613934D01*
X169595742Y-107614049D01*
X169612318Y-107624207D01*
X169612975Y-107624685D01*
X169612976Y-107624685D01*
X169616202Y-107627029D01*
X169619459Y-107631254D01*
X169648748Y-107641053D01*
X169673928Y-107653881D01*
X169672073Y-107657521D01*
X169703266Y-107672302D01*
X169740208Y-107731607D01*
X169744750Y-107764861D01*
X169744750Y-109992339D01*
X169725065Y-110059378D01*
X169672261Y-110105133D01*
X169667627Y-110106530D01*
X169648748Y-110116147D01*
X169621742Y-110125181D01*
X169620574Y-110126844D01*
X169616205Y-110130168D01*
X169612319Y-110132991D01*
X169595712Y-110143165D01*
X169593556Y-110144263D01*
X169579949Y-110146815D01*
X169571016Y-110155747D01*
X169571017Y-110155747D01*
X169557286Y-110169475D01*
X169539766Y-110182919D01*
X169536418Y-110187843D01*
X169535549Y-110189040D01*
X169522884Y-110203874D01*
X169503234Y-110223523D01*
X169490606Y-110248302D01*
X169480457Y-110264864D01*
X169480014Y-110265473D01*
X169479791Y-110266161D01*
X169472345Y-110284140D01*
X169459715Y-110308928D01*
X169455360Y-110336416D01*
X169450824Y-110355314D01*
X169450600Y-110356003D01*
X169450600Y-110356719D01*
X169449073Y-110376119D01*
X169444720Y-110403599D01*
X169449073Y-110431080D01*
X169450600Y-110450480D01*
X169450600Y-110451196D01*
X169450823Y-110451883D01*
X169455360Y-110470785D01*
X169459715Y-110498272D01*
X169472342Y-110523053D01*
X169479791Y-110541038D01*
X169479942Y-110541502D01*
X169480015Y-110541726D01*
X169480453Y-110542328D01*
X169490609Y-110558901D01*
X169503235Y-110583678D01*
X169522886Y-110603327D01*
X169535563Y-110618179D01*
X169535965Y-110618733D01*
X169536442Y-110619390D01*
X169537589Y-110622612D01*
X169557294Y-110637732D01*
X169577932Y-110658370D01*
X169585671Y-110659264D01*
X169593608Y-110662961D01*
X169595516Y-110663934D01*
X169595742Y-110664049D01*
X169612318Y-110674207D01*
X169612975Y-110674685D01*
X169612976Y-110674685D01*
X169616202Y-110677029D01*
X169619459Y-110681254D01*
X169648748Y-110691053D01*
X169673928Y-110703881D01*
X169672073Y-110707521D01*
X169703266Y-110722302D01*
X169740208Y-110781607D01*
X169744750Y-110814861D01*
X169744750Y-112627260D01*
X169744618Y-112632988D01*
X169742606Y-112676495D01*
X169739091Y-112748037D01*
X169738711Y-112753392D01*
X169716303Y-112995217D01*
X169715643Y-113000906D01*
X169706429Y-113066965D01*
X169698364Y-113121331D01*
X169697597Y-113125910D01*
X169654028Y-113358982D01*
X169652846Y-113364586D01*
X169634413Y-113442961D01*
X169623316Y-113487266D01*
X169622306Y-113491039D01*
X169558463Y-113715421D01*
X169556769Y-113720892D01*
X169527560Y-113808040D01*
X169526738Y-113810412D01*
X169515644Y-113841415D01*
X169514521Y-113844430D01*
X169430408Y-114061557D01*
X169428215Y-114066850D01*
X169386390Y-114161574D01*
X169385050Y-114164507D01*
X169378309Y-114178759D01*
X169377215Y-114181011D01*
X169270985Y-114394352D01*
X169268314Y-114399421D01*
X169214524Y-114495991D01*
X169211622Y-114500928D01*
X169081537Y-114711024D01*
X169078410Y-114715824D01*
X169015900Y-114807078D01*
X169012554Y-114811727D01*
X168863665Y-115008889D01*
X168860108Y-115013380D01*
X168789405Y-115098524D01*
X168785645Y-115102845D01*
X168619249Y-115285374D01*
X168615293Y-115289517D01*
X168537011Y-115367799D01*
X168532869Y-115371755D01*
X168350373Y-115538123D01*
X168346052Y-115541883D01*
X168260805Y-115612672D01*
X168256314Y-115616229D01*
X168059355Y-115764967D01*
X168054704Y-115768313D01*
X167963160Y-115831021D01*
X167958362Y-115834147D01*
X167748630Y-115964010D01*
X167743691Y-115966913D01*
X167646697Y-116020938D01*
X167641630Y-116023609D01*
X167429116Y-116129430D01*
X167426853Y-116130528D01*
X167412050Y-116137528D01*
X167409129Y-116138863D01*
X167313995Y-116180871D01*
X167308710Y-116183060D01*
X167295327Y-116188246D01*
X167092659Y-116266760D01*
X167089642Y-116267884D01*
X167057856Y-116279258D01*
X167055485Y-116280079D01*
X166967990Y-116309404D01*
X166962519Y-116311098D01*
X166739218Y-116374634D01*
X166735415Y-116375651D01*
X166690467Y-116386911D01*
X166634854Y-116399992D01*
X166611581Y-116405465D01*
X166606014Y-116406640D01*
X166374076Y-116449998D01*
X166369486Y-116450767D01*
X166314472Y-116458928D01*
X166247836Y-116468223D01*
X166242155Y-116468882D01*
X166001554Y-116491178D01*
X165996197Y-116491558D01*
X165924006Y-116495105D01*
X165879853Y-116497147D01*
X165874126Y-116497279D01*
X165775206Y-116497279D01*
X165775056Y-116497250D01*
X165751100Y-116497250D01*
X165166976Y-116497250D01*
X165099937Y-116477565D01*
X165063878Y-116442147D01*
X165048874Y-116419695D01*
X165041491Y-116407099D01*
X165033483Y-116391381D01*
X165024151Y-116364478D01*
X165022241Y-116363168D01*
X165007880Y-116341127D01*
X164998921Y-116323543D01*
X164989871Y-116314492D01*
X164983316Y-116302485D01*
X164976682Y-116296106D01*
X164974371Y-116294427D01*
X164967461Y-116287240D01*
X164960763Y-116280799D01*
X164940367Y-116264982D01*
X164931152Y-116255767D01*
X164913738Y-116246892D01*
X164899115Y-116233080D01*
X164895435Y-116232347D01*
X164863359Y-116221219D01*
X164863041Y-116221057D01*
X164847479Y-116213126D01*
X164836030Y-116206414D01*
X164824470Y-116208563D01*
X164798751Y-116203132D01*
X164798690Y-116203113D01*
X164798689Y-116203112D01*
X164798686Y-116203112D01*
X164797820Y-116203112D01*
X164778457Y-116201584D01*
X164751104Y-116197250D01*
X164751101Y-116197250D01*
X164751100Y-116197250D01*
X132251100Y-116197250D01*
X132245066Y-116197250D01*
X132236887Y-116199528D01*
X132223976Y-116201573D01*
X132204577Y-116203100D01*
X132203502Y-116203100D01*
X132203422Y-116203126D01*
X132169749Y-116204083D01*
X132167022Y-116205906D01*
X132154418Y-116213292D01*
X132138978Y-116221157D01*
X132112076Y-116230483D01*
X132110755Y-116232408D01*
X132088729Y-116246756D01*
X132071035Y-116255770D01*
X132061545Y-116265259D01*
X132049480Y-116271845D01*
X132043594Y-116277968D01*
X132041911Y-116280285D01*
X132034742Y-116287175D01*
X132028967Y-116293183D01*
X132012918Y-116313879D01*
X132003260Y-116323536D01*
X131994328Y-116341066D01*
X131980519Y-116355685D01*
X131979794Y-116359331D01*
X131968658Y-116391440D01*
X131960704Y-116407049D01*
X131953326Y-116419637D01*
X131938293Y-116442137D01*
X131884683Y-116486944D01*
X131835189Y-116497250D01*
X131127441Y-116497250D01*
X131121711Y-116497118D01*
X131078214Y-116495106D01*
X131006663Y-116491591D01*
X131001307Y-116491211D01*
X130759482Y-116468803D01*
X130753792Y-116468143D01*
X130687715Y-116458926D01*
X130633376Y-116450865D01*
X130628797Y-116450098D01*
X130395709Y-116406527D01*
X130390104Y-116405344D01*
X130311741Y-116386913D01*
X130286380Y-116380561D01*
X130267418Y-116375811D01*
X130263707Y-116374818D01*
X130145079Y-116341066D01*
X130039255Y-116310956D01*
X130033783Y-116309262D01*
X129946708Y-116280077D01*
X129944345Y-116279258D01*
X129922359Y-116271392D01*
X129913298Y-116268150D01*
X129910298Y-116267032D01*
X129693084Y-116182882D01*
X129687800Y-116180694D01*
X129593099Y-116138879D01*
X129590211Y-116137559D01*
X129576056Y-116130864D01*
X129573802Y-116129770D01*
X129493807Y-116089937D01*
X129360269Y-116023442D01*
X129355212Y-116020777D01*
X129258795Y-115967073D01*
X129253856Y-115964171D01*
X129043585Y-115833976D01*
X129038786Y-115830849D01*
X128947710Y-115768461D01*
X128943060Y-115765115D01*
X128857808Y-115700736D01*
X128745708Y-115616082D01*
X128741223Y-115612529D01*
X128656287Y-115541999D01*
X128651966Y-115538239D01*
X128469211Y-115371636D01*
X128465068Y-115367680D01*
X128387018Y-115289630D01*
X128383062Y-115285487D01*
X128216459Y-115102732D01*
X128212699Y-115098411D01*
X128142169Y-115013475D01*
X128138612Y-115008985D01*
X128069883Y-114917973D01*
X127989576Y-114811628D01*
X127986237Y-114806988D01*
X127923849Y-114715912D01*
X127920722Y-114711113D01*
X127920667Y-114711024D01*
X127790520Y-114500830D01*
X127787625Y-114495903D01*
X127733926Y-114399494D01*
X127731255Y-114394427D01*
X127711290Y-114354333D01*
X127624893Y-114180825D01*
X127623876Y-114178730D01*
X127617123Y-114164452D01*
X127615817Y-114161596D01*
X127573995Y-114066877D01*
X127571816Y-114061614D01*
X127487674Y-113844421D01*
X127486578Y-113841481D01*
X127475388Y-113810208D01*
X127474620Y-113807989D01*
X127445442Y-113720933D01*
X127443748Y-113715463D01*
X127443168Y-113713425D01*
X127379872Y-113490963D01*
X127378884Y-113487266D01*
X127367770Y-113442896D01*
X127349333Y-113364507D01*
X127348180Y-113359038D01*
X127304599Y-113125900D01*
X127303835Y-113121331D01*
X127295768Y-113066956D01*
X127286549Y-113000867D01*
X127285898Y-112995254D01*
X127263484Y-112753360D01*
X127263111Y-112748101D01*
X127259577Y-112676154D01*
X127257581Y-112632987D01*
X127257449Y-112627260D01*
X127257450Y-112503600D01*
X127257450Y-110814840D01*
X127277135Y-110747801D01*
X127329939Y-110702046D01*
X127334579Y-110700647D01*
X127345759Y-110694949D01*
X127345761Y-110694949D01*
X127370313Y-110682436D01*
X127388298Y-110674986D01*
X127389225Y-110674685D01*
X127390022Y-110674105D01*
X127406606Y-110663940D01*
X127431153Y-110651432D01*
X127450610Y-110631971D01*
X127465413Y-110619330D01*
X127466234Y-110618734D01*
X127466837Y-110617903D01*
X127479475Y-110603103D01*
X127498920Y-110583658D01*
X127511389Y-110559182D01*
X127521563Y-110542581D01*
X127521747Y-110542328D01*
X127522185Y-110541725D01*
X127522519Y-110540694D01*
X127529954Y-110522743D01*
X127542428Y-110498262D01*
X127546721Y-110471145D01*
X127551264Y-110452226D01*
X127551600Y-110451195D01*
X127551600Y-110450108D01*
X127553126Y-110430713D01*
X127553295Y-110429643D01*
X127557420Y-110403600D01*
X127553126Y-110376486D01*
X127551600Y-110357091D01*
X127551600Y-110356005D01*
X127551266Y-110354978D01*
X127546721Y-110336049D01*
X127542428Y-110308938D01*
X127529957Y-110284460D01*
X127522515Y-110266491D01*
X127522408Y-110266161D01*
X127522185Y-110265475D01*
X127521564Y-110264620D01*
X127511392Y-110248021D01*
X127498921Y-110223543D01*
X127498900Y-110223522D01*
X127479473Y-110204093D01*
X127466838Y-110189297D01*
X127466234Y-110188466D01*
X127466233Y-110188465D01*
X127466231Y-110188462D01*
X127465403Y-110187861D01*
X127450606Y-110175223D01*
X127431153Y-110155768D01*
X127406607Y-110143259D01*
X127390028Y-110133098D01*
X127389225Y-110132515D01*
X127389224Y-110132514D01*
X127389222Y-110132513D01*
X127388294Y-110132212D01*
X127370317Y-110124764D01*
X127328265Y-110103334D01*
X127330119Y-110099694D01*
X127298908Y-110084895D01*
X127261983Y-110025580D01*
X127257450Y-109992359D01*
X127257450Y-107764840D01*
X127277135Y-107697801D01*
X127329939Y-107652046D01*
X127334579Y-107650647D01*
X127345759Y-107644949D01*
X127345761Y-107644949D01*
X127370313Y-107632436D01*
X127388298Y-107624986D01*
X127389225Y-107624685D01*
X127390022Y-107624105D01*
X127406606Y-107613940D01*
X127431153Y-107601432D01*
X127450610Y-107581971D01*
X127465413Y-107569330D01*
X127466234Y-107568734D01*
X127466837Y-107567903D01*
X127479475Y-107553103D01*
X127498920Y-107533658D01*
X127511389Y-107509182D01*
X127521563Y-107492581D01*
X127521747Y-107492328D01*
X127522185Y-107491725D01*
X127522519Y-107490694D01*
X127529954Y-107472743D01*
X127542428Y-107448262D01*
X127546721Y-107421145D01*
X127551264Y-107402226D01*
X127551600Y-107401195D01*
X127551600Y-107400108D01*
X127553126Y-107380713D01*
X127553295Y-107379643D01*
X127557420Y-107353600D01*
X127553126Y-107326486D01*
X127551600Y-107307091D01*
X127551600Y-107306005D01*
X127551266Y-107304978D01*
X127546721Y-107286049D01*
X127542428Y-107258938D01*
X127529957Y-107234460D01*
X127522515Y-107216491D01*
X127522408Y-107216161D01*
X127522185Y-107215475D01*
X127521564Y-107214620D01*
X127511392Y-107198021D01*
X127498921Y-107173543D01*
X127498900Y-107173522D01*
X127479473Y-107154093D01*
X127466838Y-107139297D01*
X127466234Y-107138466D01*
X127466233Y-107138465D01*
X127466231Y-107138462D01*
X127465403Y-107137861D01*
X127450606Y-107125223D01*
X127431153Y-107105768D01*
X127406607Y-107093259D01*
X127390028Y-107083098D01*
X127389225Y-107082515D01*
X127389224Y-107082514D01*
X127389222Y-107082513D01*
X127388294Y-107082212D01*
X127370317Y-107074764D01*
X127328265Y-107053334D01*
X127330119Y-107049694D01*
X127298908Y-107034895D01*
X127261983Y-106975580D01*
X127257450Y-106942359D01*
X127257450Y-104956099D01*
X128783114Y-104956099D01*
X128802509Y-105227261D01*
X128860293Y-105492896D01*
X128860295Y-105492901D01*
X128955298Y-105747613D01*
X128955300Y-105747617D01*
X128955301Y-105747619D01*
X129085579Y-105986208D01*
X129098759Y-106003814D01*
X129248499Y-106203842D01*
X129440728Y-106396071D01*
X129554651Y-106481353D01*
X129658361Y-106558990D01*
X129854272Y-106665964D01*
X129896957Y-106689272D01*
X130151669Y-106784275D01*
X130151672Y-106784275D01*
X130151673Y-106784276D01*
X130201322Y-106795076D01*
X130417310Y-106842061D01*
X130667580Y-106859960D01*
X130688469Y-106861455D01*
X130688469Y-106861454D01*
X130688470Y-106861455D01*
X130959630Y-106842061D01*
X131225271Y-106784275D01*
X131479983Y-106689272D01*
X131718583Y-106558987D01*
X131936212Y-106396071D01*
X132128441Y-106203842D01*
X132291357Y-105986213D01*
X132421642Y-105747613D01*
X132516645Y-105492901D01*
X132574431Y-105227260D01*
X132593825Y-104956100D01*
X132574431Y-104684940D01*
X132516645Y-104419299D01*
X132421642Y-104164587D01*
X132381646Y-104091340D01*
X132291360Y-103925991D01*
X132290155Y-103924381D01*
X132128441Y-103708358D01*
X131936212Y-103516129D01*
X131718583Y-103353213D01*
X131718584Y-103353213D01*
X131718578Y-103353209D01*
X131479989Y-103222931D01*
X131479987Y-103222930D01*
X131479983Y-103222928D01*
X131225271Y-103127925D01*
X131225266Y-103127923D01*
X130959631Y-103070139D01*
X130688469Y-103050744D01*
X130417308Y-103070139D01*
X130151673Y-103127923D01*
X130007426Y-103181724D01*
X129896957Y-103222928D01*
X129896954Y-103222929D01*
X129896950Y-103222931D01*
X129658361Y-103353209D01*
X129440725Y-103516131D01*
X129248501Y-103708355D01*
X129085579Y-103925991D01*
X128955301Y-104164580D01*
X128860293Y-104419303D01*
X128802509Y-104684938D01*
X128783114Y-104956099D01*
X127257450Y-104956099D01*
X127257450Y-103064840D01*
X127277135Y-102997801D01*
X127329939Y-102952046D01*
X127334579Y-102950647D01*
X127345759Y-102944949D01*
X127345761Y-102944949D01*
X127370313Y-102932436D01*
X127388298Y-102924986D01*
X127389225Y-102924685D01*
X127390022Y-102924105D01*
X127406606Y-102913940D01*
X127431153Y-102901432D01*
X127450610Y-102881971D01*
X127465413Y-102869330D01*
X127466234Y-102868734D01*
X127466837Y-102867903D01*
X127479475Y-102853103D01*
X127498920Y-102833658D01*
X127511389Y-102809182D01*
X127521563Y-102792581D01*
X127521747Y-102792328D01*
X127522185Y-102791725D01*
X127522519Y-102790694D01*
X127529954Y-102772743D01*
X127542428Y-102748262D01*
X127546721Y-102721145D01*
X127551264Y-102702226D01*
X127551600Y-102701195D01*
X127551600Y-102700108D01*
X127553126Y-102680713D01*
X127553295Y-102679643D01*
X127557420Y-102653600D01*
X127553126Y-102626486D01*
X127551600Y-102607091D01*
X127551600Y-102606005D01*
X127551266Y-102604978D01*
X127546721Y-102586049D01*
X127542428Y-102558938D01*
X127529957Y-102534460D01*
X127522515Y-102516491D01*
X127522408Y-102516161D01*
X127522185Y-102515475D01*
X127521564Y-102514620D01*
X127511392Y-102498021D01*
X127498921Y-102473543D01*
X127498900Y-102473522D01*
X127479473Y-102454093D01*
X127466838Y-102439297D01*
X127466234Y-102438466D01*
X127466233Y-102438465D01*
X127466231Y-102438462D01*
X127465403Y-102437861D01*
X127450606Y-102425223D01*
X127431153Y-102405768D01*
X127406607Y-102393259D01*
X127390028Y-102383098D01*
X127389225Y-102382515D01*
X127389224Y-102382514D01*
X127389222Y-102382513D01*
X127388294Y-102382212D01*
X127370317Y-102374764D01*
X127328265Y-102353334D01*
X127330119Y-102349694D01*
X127298908Y-102334895D01*
X127261983Y-102275580D01*
X127257450Y-102242359D01*
X127257450Y-101400100D01*
X134572930Y-101400100D01*
X134593081Y-101848793D01*
X134593451Y-101851531D01*
X134593453Y-101851543D01*
X134646390Y-102242339D01*
X134653371Y-102293874D01*
X134653990Y-102296588D01*
X134653991Y-102296591D01*
X134748210Y-102709394D01*
X134753315Y-102731758D01*
X134754172Y-102734396D01*
X134754173Y-102734399D01*
X134824891Y-102952046D01*
X134892109Y-103158921D01*
X134893206Y-103161489D01*
X134893210Y-103161498D01*
X134975153Y-103353213D01*
X135068634Y-103571922D01*
X135069948Y-103574365D01*
X135069953Y-103574374D01*
X135142053Y-103708358D01*
X135281470Y-103967438D01*
X135528903Y-104342283D01*
X135530640Y-104344461D01*
X135805771Y-104689465D01*
X135808941Y-104693439D01*
X135810860Y-104695446D01*
X136117399Y-105016062D01*
X136117405Y-105016068D01*
X136119328Y-105018079D01*
X136457567Y-105313589D01*
X136459815Y-105315222D01*
X136459816Y-105315223D01*
X136813994Y-105572549D01*
X136820933Y-105577590D01*
X137206501Y-105807956D01*
X137611167Y-106002833D01*
X138031673Y-106160651D01*
X138464633Y-106280141D01*
X138906560Y-106360339D01*
X139353897Y-106400600D01*
X139356674Y-106400600D01*
X139800266Y-106400600D01*
X139803043Y-106400600D01*
X140250380Y-106360339D01*
X140692307Y-106280141D01*
X141125267Y-106160651D01*
X141545773Y-106002833D01*
X141950439Y-105807956D01*
X142336007Y-105577590D01*
X142699373Y-105313589D01*
X143037612Y-105018079D01*
X143347999Y-104693439D01*
X143628037Y-104342283D01*
X143875470Y-103967438D01*
X144088306Y-103571922D01*
X144264831Y-103158921D01*
X144403625Y-102731758D01*
X144503569Y-102293874D01*
X144563859Y-101848793D01*
X144578306Y-101527100D01*
X152352930Y-101527100D01*
X152353055Y-101529883D01*
X152367252Y-101846015D01*
X152373081Y-101975793D01*
X152373451Y-101978531D01*
X152373453Y-101978543D01*
X152431325Y-102405768D01*
X152433371Y-102420874D01*
X152433990Y-102423588D01*
X152433991Y-102423591D01*
X152518210Y-102792581D01*
X152533315Y-102858758D01*
X152534172Y-102861396D01*
X152534173Y-102861399D01*
X152600275Y-103064840D01*
X152672109Y-103285921D01*
X152673206Y-103288489D01*
X152673210Y-103288498D01*
X152794352Y-103571922D01*
X152848634Y-103698922D01*
X152849948Y-103701365D01*
X152849953Y-103701374D01*
X152993128Y-103967438D01*
X153061470Y-104094438D01*
X153308903Y-104469283D01*
X153310640Y-104471461D01*
X153585771Y-104816465D01*
X153588941Y-104820439D01*
X153590860Y-104822446D01*
X153897399Y-105143062D01*
X153897405Y-105143068D01*
X153899328Y-105145079D01*
X154237567Y-105440589D01*
X154239815Y-105442222D01*
X154239816Y-105442223D01*
X154593994Y-105699549D01*
X154600933Y-105704590D01*
X154986501Y-105934956D01*
X155391167Y-106129833D01*
X155811673Y-106287651D01*
X156244633Y-106407141D01*
X156686560Y-106487339D01*
X157133897Y-106527600D01*
X157136674Y-106527600D01*
X157580266Y-106527600D01*
X157583043Y-106527600D01*
X158030380Y-106487339D01*
X158472307Y-106407141D01*
X158905267Y-106287651D01*
X159325773Y-106129833D01*
X159730439Y-105934956D01*
X160116007Y-105704590D01*
X160479373Y-105440589D01*
X160817612Y-105145079D01*
X160998295Y-104956099D01*
X164343114Y-104956099D01*
X164362509Y-105227261D01*
X164420293Y-105492896D01*
X164420295Y-105492901D01*
X164515298Y-105747613D01*
X164515300Y-105747617D01*
X164515301Y-105747619D01*
X164645579Y-105986208D01*
X164658759Y-106003814D01*
X164808499Y-106203842D01*
X165000728Y-106396071D01*
X165114651Y-106481353D01*
X165218361Y-106558990D01*
X165414272Y-106665964D01*
X165456957Y-106689272D01*
X165711669Y-106784275D01*
X165711672Y-106784275D01*
X165711673Y-106784276D01*
X165761322Y-106795076D01*
X165977310Y-106842061D01*
X166248470Y-106861455D01*
X166519630Y-106842061D01*
X166785271Y-106784275D01*
X167039983Y-106689272D01*
X167278583Y-106558987D01*
X167496212Y-106396071D01*
X167688441Y-106203842D01*
X167851357Y-105986213D01*
X167981642Y-105747613D01*
X168076645Y-105492901D01*
X168134431Y-105227260D01*
X168153825Y-104956100D01*
X168134431Y-104684940D01*
X168076645Y-104419299D01*
X167981642Y-104164587D01*
X167941646Y-104091340D01*
X167851360Y-103925991D01*
X167850155Y-103924381D01*
X167688441Y-103708358D01*
X167496212Y-103516129D01*
X167278583Y-103353213D01*
X167278584Y-103353213D01*
X167278578Y-103353209D01*
X167039989Y-103222931D01*
X167039987Y-103222930D01*
X167039983Y-103222928D01*
X166785271Y-103127925D01*
X166785266Y-103127923D01*
X166519631Y-103070139D01*
X166248470Y-103050744D01*
X165977308Y-103070139D01*
X165711673Y-103127923D01*
X165567426Y-103181724D01*
X165456957Y-103222928D01*
X165456954Y-103222929D01*
X165456950Y-103222931D01*
X165218361Y-103353209D01*
X165000725Y-103516131D01*
X164808501Y-103708355D01*
X164645579Y-103925991D01*
X164515301Y-104164580D01*
X164420293Y-104419303D01*
X164362509Y-104684938D01*
X164343114Y-104956099D01*
X160998295Y-104956099D01*
X161127999Y-104820439D01*
X161408037Y-104469283D01*
X161655470Y-104094438D01*
X161868306Y-103698922D01*
X162044831Y-103285921D01*
X162183625Y-102858758D01*
X162283569Y-102420874D01*
X162343859Y-101975793D01*
X162364010Y-101527100D01*
X162343859Y-101078407D01*
X162283569Y-100633326D01*
X162183625Y-100195442D01*
X162044831Y-99768279D01*
X161868306Y-99355278D01*
X161655470Y-98959762D01*
X161408037Y-98584917D01*
X161127999Y-98233761D01*
X161004655Y-98104753D01*
X160819540Y-97911137D01*
X160819534Y-97911131D01*
X160817612Y-97909121D01*
X160479373Y-97613611D01*
X160327956Y-97503600D01*
X160118258Y-97351245D01*
X160118251Y-97351240D01*
X160116007Y-97349610D01*
X159901058Y-97221184D01*
X159732831Y-97120673D01*
X159732828Y-97120671D01*
X159730439Y-97119244D01*
X159727932Y-97118036D01*
X159727927Y-97118034D01*
X159464208Y-96991034D01*
X159325773Y-96924367D01*
X159323169Y-96923389D01*
X159323158Y-96923385D01*
X158907877Y-96767528D01*
X158907866Y-96767524D01*
X158905267Y-96766549D01*
X158902582Y-96765808D01*
X158902579Y-96765807D01*
X158474996Y-96647801D01*
X158474993Y-96647800D01*
X158472307Y-96647059D01*
X158469575Y-96646563D01*
X158469561Y-96646560D01*
X158033120Y-96567358D01*
X158033114Y-96567357D01*
X158030380Y-96566861D01*
X158027625Y-96566613D01*
X158027610Y-96566611D01*
X157585806Y-96526848D01*
X157585791Y-96526847D01*
X157583043Y-96526600D01*
X157133897Y-96526600D01*
X157131149Y-96526847D01*
X157131133Y-96526848D01*
X156689329Y-96566611D01*
X156689311Y-96566613D01*
X156686560Y-96566861D01*
X156683828Y-96567356D01*
X156683819Y-96567358D01*
X156247378Y-96646560D01*
X156247359Y-96646564D01*
X156244633Y-96647059D01*
X156241951Y-96647799D01*
X156241943Y-96647801D01*
X155814360Y-96765807D01*
X155814351Y-96765809D01*
X155811673Y-96766549D01*
X155809080Y-96767522D01*
X155809062Y-96767528D01*
X155393781Y-96923385D01*
X155393762Y-96923392D01*
X155391167Y-96924367D01*
X155388657Y-96925575D01*
X155388654Y-96925577D01*
X154989012Y-97118034D01*
X154988998Y-97118041D01*
X154986501Y-97119244D01*
X154984120Y-97120666D01*
X154984108Y-97120673D01*
X154603319Y-97348184D01*
X154603312Y-97348188D01*
X154600933Y-97349610D01*
X154598698Y-97351233D01*
X154598681Y-97351245D01*
X154239816Y-97611976D01*
X154239801Y-97611987D01*
X154237567Y-97613611D01*
X154235481Y-97615432D01*
X154235474Y-97615439D01*
X153901434Y-97907280D01*
X153901421Y-97907292D01*
X153899328Y-97909121D01*
X153897416Y-97911120D01*
X153897399Y-97911137D01*
X153590860Y-98231753D01*
X153590851Y-98231763D01*
X153588941Y-98233761D01*
X153587220Y-98235918D01*
X153587206Y-98235935D01*
X153310640Y-98582738D01*
X153310632Y-98582747D01*
X153308903Y-98584917D01*
X153307376Y-98587229D01*
X153307366Y-98587244D01*
X153063004Y-98957437D01*
X153062997Y-98957448D01*
X153061470Y-98959762D01*
X153060158Y-98962198D01*
X153060152Y-98962210D01*
X152849953Y-99352825D01*
X152849944Y-99352842D01*
X152848634Y-99355278D01*
X152847539Y-99357838D01*
X152847536Y-99357846D01*
X152673210Y-99765701D01*
X152673203Y-99765718D01*
X152672109Y-99768279D01*
X152671246Y-99770932D01*
X152671244Y-99770940D01*
X152573701Y-100071148D01*
X152533315Y-100195442D01*
X152532699Y-100198140D01*
X152532697Y-100198148D01*
X152461728Y-100509085D01*
X152433371Y-100633326D01*
X152432998Y-100636079D01*
X152432997Y-100636085D01*
X152373453Y-101075656D01*
X152373451Y-101075670D01*
X152373081Y-101078407D01*
X152352930Y-101527100D01*
X144578306Y-101527100D01*
X144584010Y-101400100D01*
X144563859Y-100951407D01*
X144503569Y-100506326D01*
X144403625Y-100068442D01*
X144264831Y-99641279D01*
X144088306Y-99228278D01*
X143875470Y-98832762D01*
X143628037Y-98457917D01*
X143485071Y-98278643D01*
X143349733Y-98108935D01*
X143349729Y-98108931D01*
X143347999Y-98106761D01*
X143157276Y-97907280D01*
X143039540Y-97784137D01*
X143039534Y-97784131D01*
X143037612Y-97782121D01*
X142699373Y-97486611D01*
X142551656Y-97379288D01*
X142338258Y-97224245D01*
X142338251Y-97224240D01*
X142336007Y-97222610D01*
X141982389Y-97011333D01*
X141952831Y-96993673D01*
X141952828Y-96993671D01*
X141950439Y-96992244D01*
X141947932Y-96991036D01*
X141947927Y-96991034D01*
X141731219Y-96886673D01*
X141545773Y-96797367D01*
X141543169Y-96796389D01*
X141543158Y-96796385D01*
X141127877Y-96640528D01*
X141127866Y-96640524D01*
X141125267Y-96639549D01*
X141122582Y-96638808D01*
X141122579Y-96638807D01*
X140694996Y-96520801D01*
X140694993Y-96520800D01*
X140692307Y-96520059D01*
X140689575Y-96519563D01*
X140689561Y-96519560D01*
X140253120Y-96440358D01*
X140253114Y-96440357D01*
X140250380Y-96439861D01*
X140247625Y-96439613D01*
X140247610Y-96439611D01*
X139805806Y-96399848D01*
X139805791Y-96399847D01*
X139803043Y-96399600D01*
X139353897Y-96399600D01*
X139351149Y-96399847D01*
X139351133Y-96399848D01*
X138909329Y-96439611D01*
X138909311Y-96439613D01*
X138906560Y-96439861D01*
X138903828Y-96440356D01*
X138903819Y-96440358D01*
X138467378Y-96519560D01*
X138467359Y-96519564D01*
X138464633Y-96520059D01*
X138461951Y-96520799D01*
X138461943Y-96520801D01*
X138034360Y-96638807D01*
X138034351Y-96638809D01*
X138031673Y-96639549D01*
X138029080Y-96640522D01*
X138029062Y-96640528D01*
X137613781Y-96796385D01*
X137613762Y-96796392D01*
X137611167Y-96797367D01*
X137608657Y-96798575D01*
X137608654Y-96798577D01*
X137209012Y-96991034D01*
X137208998Y-96991041D01*
X137206501Y-96992244D01*
X137204120Y-96993666D01*
X137204108Y-96993673D01*
X136823319Y-97221184D01*
X136823312Y-97221188D01*
X136820933Y-97222610D01*
X136818698Y-97224233D01*
X136818681Y-97224245D01*
X136459816Y-97484976D01*
X136459801Y-97484987D01*
X136457567Y-97486611D01*
X136455481Y-97488432D01*
X136455474Y-97488439D01*
X136121434Y-97780280D01*
X136121421Y-97780292D01*
X136119328Y-97782121D01*
X136117416Y-97784120D01*
X136117399Y-97784137D01*
X135810860Y-98104753D01*
X135810851Y-98104763D01*
X135808941Y-98106761D01*
X135807220Y-98108918D01*
X135807206Y-98108935D01*
X135530640Y-98455738D01*
X135530632Y-98455747D01*
X135528903Y-98457917D01*
X135527376Y-98460229D01*
X135527366Y-98460244D01*
X135283004Y-98830437D01*
X135282997Y-98830448D01*
X135281470Y-98832762D01*
X135280158Y-98835198D01*
X135280152Y-98835210D01*
X135069953Y-99225825D01*
X135069944Y-99225842D01*
X135068634Y-99228278D01*
X135067539Y-99230838D01*
X135067536Y-99230846D01*
X134893210Y-99638701D01*
X134893203Y-99638718D01*
X134892109Y-99641279D01*
X134891246Y-99643932D01*
X134891244Y-99643940D01*
X134770725Y-100014861D01*
X134753315Y-100068442D01*
X134752699Y-100071140D01*
X134752697Y-100071148D01*
X134653991Y-100503608D01*
X134653371Y-100506326D01*
X134652998Y-100509079D01*
X134652997Y-100509085D01*
X134593453Y-100948656D01*
X134593451Y-100948670D01*
X134593081Y-100951407D01*
X134592956Y-100954177D01*
X134592956Y-100954184D01*
X134573055Y-101397316D01*
X134572930Y-101400100D01*
X127257450Y-101400100D01*
X127257450Y-100014840D01*
X127277135Y-99947801D01*
X127329939Y-99902046D01*
X127334579Y-99900647D01*
X127345759Y-99894949D01*
X127345761Y-99894949D01*
X127370313Y-99882436D01*
X127388298Y-99874986D01*
X127389225Y-99874685D01*
X127390022Y-99874105D01*
X127406606Y-99863940D01*
X127431153Y-99851432D01*
X127450610Y-99831971D01*
X127465413Y-99819330D01*
X127466234Y-99818734D01*
X127466837Y-99817903D01*
X127479475Y-99803103D01*
X127498920Y-99783658D01*
X127511389Y-99759182D01*
X127521563Y-99742581D01*
X127521747Y-99742328D01*
X127522185Y-99741725D01*
X127522519Y-99740694D01*
X127529954Y-99722743D01*
X127542428Y-99698262D01*
X127546721Y-99671145D01*
X127551264Y-99652226D01*
X127551600Y-99651195D01*
X127551600Y-99650108D01*
X127553126Y-99630713D01*
X127553295Y-99629643D01*
X127557420Y-99603600D01*
X127553126Y-99576486D01*
X127551600Y-99557091D01*
X127551600Y-99556005D01*
X127551266Y-99554978D01*
X127546721Y-99536049D01*
X127542428Y-99508938D01*
X127529957Y-99484460D01*
X127522515Y-99466491D01*
X127522408Y-99466161D01*
X127522185Y-99465475D01*
X127521564Y-99464620D01*
X127511392Y-99448021D01*
X127498921Y-99423543D01*
X127498900Y-99423522D01*
X127479473Y-99404093D01*
X127466838Y-99389297D01*
X127466234Y-99388466D01*
X127466233Y-99388465D01*
X127466231Y-99388462D01*
X127465403Y-99387861D01*
X127450606Y-99375223D01*
X127431153Y-99355768D01*
X127406607Y-99343259D01*
X127390028Y-99333098D01*
X127389225Y-99332515D01*
X127389224Y-99332514D01*
X127389222Y-99332513D01*
X127388294Y-99332212D01*
X127370317Y-99324764D01*
X127328265Y-99303334D01*
X127330119Y-99299694D01*
X127298908Y-99284895D01*
X127261983Y-99225580D01*
X127257450Y-99192359D01*
X127257450Y-97503600D01*
X127257449Y-97379937D01*
X127257581Y-97374209D01*
X127258643Y-97351245D01*
X127259579Y-97330984D01*
X127259593Y-97330721D01*
X127263112Y-97259078D01*
X127263483Y-97253851D01*
X127285899Y-97011939D01*
X127286549Y-97006333D01*
X127295770Y-96940229D01*
X127303840Y-96885834D01*
X127304598Y-96881308D01*
X127348172Y-96648205D01*
X127349353Y-96642611D01*
X127367770Y-96564305D01*
X127368157Y-96562757D01*
X127378911Y-96519824D01*
X127379869Y-96516245D01*
X127443752Y-96291718D01*
X127445440Y-96286271D01*
X127474625Y-96199195D01*
X127475383Y-96197005D01*
X127486593Y-96165676D01*
X127487651Y-96162835D01*
X127571812Y-95945593D01*
X127574003Y-95940303D01*
X127574239Y-95939769D01*
X127615830Y-95845572D01*
X127617093Y-95842810D01*
X127623891Y-95828438D01*
X127624892Y-95826375D01*
X127731259Y-95612761D01*
X127733926Y-95607704D01*
X127734205Y-95607203D01*
X127787642Y-95511264D01*
X127790508Y-95506386D01*
X127920735Y-95296063D01*
X127923835Y-95291306D01*
X127986258Y-95200179D01*
X127989561Y-95195590D01*
X128138636Y-94998181D01*
X128142169Y-94993723D01*
X128142491Y-94993336D01*
X128182492Y-94945164D01*
X128212699Y-94908787D01*
X128216441Y-94904486D01*
X128383082Y-94721689D01*
X128386996Y-94717590D01*
X128465090Y-94639496D01*
X128469189Y-94635582D01*
X128651986Y-94468941D01*
X128656287Y-94465199D01*
X128707597Y-94422592D01*
X128741227Y-94394665D01*
X128745681Y-94391136D01*
X128943090Y-94242061D01*
X128947679Y-94238758D01*
X129038806Y-94176335D01*
X129043563Y-94173235D01*
X129253886Y-94043008D01*
X129258764Y-94040142D01*
X129355213Y-93986421D01*
X129360261Y-93983759D01*
X129573875Y-93877392D01*
X129575938Y-93876391D01*
X129590310Y-93869593D01*
X129593090Y-93868323D01*
X129687816Y-93826497D01*
X129693093Y-93824312D01*
X129745232Y-93804113D01*
X129910335Y-93740151D01*
X129913176Y-93739093D01*
X129944505Y-93727883D01*
X129946695Y-93727125D01*
X130033782Y-93697936D01*
X130039230Y-93696249D01*
X130263687Y-93632386D01*
X130267367Y-93631400D01*
X130311765Y-93620279D01*
X130390126Y-93601848D01*
X130395691Y-93600674D01*
X130628799Y-93557099D01*
X130633334Y-93556340D01*
X130687732Y-93548270D01*
X130753808Y-93539052D01*
X130759457Y-93538397D01*
X131001355Y-93515982D01*
X131006578Y-93515612D01*
X131078143Y-93512096D01*
X131121709Y-93510082D01*
X131127434Y-93509950D01*
X131251100Y-93509950D01*
X131835156Y-93509950D01*
X131902195Y-93529635D01*
G37*
%TD.AperFunction*%
M02*
